<?xml version="1.0" encoding="utf-8"?>
<!-- Generator: Adobe Illustrator 16.0.3, SVG Export Plug-In . SVG Version: 6.00 Build 0)  -->
<!DOCTYPE svg PUBLIC "-//W3C//DTD SVG 1.1//EN" "http://www.w3.org/Graphics/SVG/1.1/DTD/svg11.dtd">
<svg version="1.1" id="Ebene_1" xmlns="http://www.w3.org/2000/svg" xmlns:xlink="http://www.w3.org/1999/xlink" x="0px" y="0px"
	 width="80px" height="15px" viewBox="0 0 80 15" enable-background="new 0 0 80 15" xml:space="preserve">
<path fill="#FFFFFF" d="M0,0v15h80V0H0z"/>
<path fill="#FF3300" d="M1,1v13h78V1H1z"/>
<path fill="#F5F5F5" d="M2,2v11h38V2H2z"/>
<path fill="#FF3300" d="M41,2v11h37V2H41z"/>
<path fill="#FF3300" d="M6,6h2V5H6v2h2V6h1v4H8V8H6v2H5V6H6V5V6z"/>
<path fill="#FF3300" d="M11,5h3v1h-1v4h-1V6h-1V5z"/>
<path fill="#FF3300" d="M16,6h1V5h2v1h-2v3h2V6h1v3h-1v1h-2V9h-1V6z"/>
<path fill="#FF3300" d="M22,5h1v1h1v1h1V6h1V5h1v5h-1V7h-1v1h-1V7h-1v3h-1V5z"/>
<path fill="#F5F5F5" d="M51,5h2v4h1v1h-3V9h1V6h-1V5z"/>
<path fill="#F5F5F5" d="M56,9h1v1h-1V9z"/>
<path fill="#F5F5F5" d="M58,6h1V5h2v1h-2v3h2V6h1v3h-1v1h-2V9h-1V6z"/>
</svg>
