<?xml version="1.0" encoding="utf-8"?>
<!-- Generator: Adobe Illustrator 16.0.3, SVG Export Plug-In . SVG Version: 6.00 Build 0)  -->
<!DOCTYPE svg PUBLIC "-//W3C//DTD SVG 1.1//EN" "http://www.w3.org/Graphics/SVG/1.1/DTD/svg11.dtd">
<svg version="1.1" id="Ebene_1" xmlns="http://www.w3.org/2000/svg" xmlns:xlink="http://www.w3.org/1999/xlink" x="0px" y="0px"
	 width="80px" height="15px" viewBox="0 0 80 15" enable-background="new 0 0 80 15" xml:space="preserve">
<path fill="#FFFFFF" d="M0,0v15h80V0H0z"/>
<path fill="#FF3300" d="M1,1v13h78V1H1z"/>
<path fill="#F5F5F5" d="M2,2v11h24V2H2z"/>
<path fill="#FF3300" d="M27,2v11h51V2H27z"/>
<path fill="#FF3300" d="M5,5h3v1h1v1H8V6H6v1h2v2h1v1H8V9H7V8H6v2H5V5z"/>
<path fill="#FF3300" d="M12,5h3v1h-3v1h2v1h1v1h-1v1h-3V9h3V8h-2V7h-1V6h1V5z"/>
<path fill="#FF3300" d="M18,5h3v1h-3v1h2v1h1v1h-1v1h-3V9h3V8h-2V7h-1V6h1V5z"/>
<path fill="#F5F5F5" d="M31,5h3v1h1v1h-1v1h-2v1h3v1h-4V8h1V7h2V6h-3V5z"/>
<path fill="#F5F5F5" d="M36,9h1v1h-1V9z"/>
<path fill="#F5F5F5" d="M39,6h1V5h2v1h-2v3h2V6h1v3h-1v1h-2V9h-1V6z"/>
</svg>
