<?xml version="1.0" encoding="utf-8"?>
<!-- Generator: Adobe Illustrator 15.0.0, SVG Export Plug-In . SVG Version: 6.00 Build 0)  -->
<!DOCTYPE svg PUBLIC "-//W3C//DTD SVG 1.1//EN" "http://www.w3.org/Graphics/SVG/1.1/DTD/svg11.dtd">
<svg version="1.1" id="Ebene_1" xmlns="http://www.w3.org/2000/svg" xmlns:xlink="http://www.w3.org/1999/xlink" x="0px" y="0px"
	 width="500px" height="120px" viewBox="0 0 500 120" enable-background="new 0 0 500 120" xml:space="preserve">
<g>
	<path fill="#FFFFFF" d="M25.242,64.111c0,1.617-0.299,3.059-0.896,4.324s-1.447,2.332-2.549,3.199
		c-1.102,0.867-2.414,1.523-3.938,1.969c-1.524,0.444-3.199,0.668-5.027,0.668c-1.125,0-2.197-0.088-3.217-0.264
		s-1.934-0.399-2.742-0.668c-0.809-0.27-1.494-0.551-2.057-0.844s-0.973-0.557-1.23-0.791c-0.258-0.234-0.445-0.563-0.563-0.984
		c-0.118-0.422-0.176-0.996-0.176-1.723c0-0.445,0.023-0.82,0.07-1.125c0.047-0.305,0.105-0.551,0.176-0.738s0.17-0.322,0.299-0.404
		c0.128-0.082,0.275-0.123,0.439-0.123c0.258,0,0.638,0.158,1.143,0.475c0.504,0.316,1.125,0.662,1.863,1.037
		s1.611,0.721,2.619,1.037c1.007,0.316,2.167,0.475,3.48,0.475c0.984,0,1.875-0.105,2.672-0.316
		c0.796-0.211,1.488-0.521,2.074-0.932c0.585-0.41,1.037-0.932,1.354-1.564s0.475-1.383,0.475-2.25c0-0.891-0.229-1.641-0.686-2.25
		s-1.061-1.148-1.811-1.618c-0.75-0.469-1.594-0.884-2.531-1.248c-0.938-0.363-1.904-0.744-2.9-1.143
		c-0.997-0.398-1.969-0.849-2.918-1.354c-0.949-0.504-1.799-1.119-2.549-1.846c-0.75-0.726-1.354-1.594-1.811-2.602
		c-0.457-1.007-0.686-2.215-0.686-3.621c0-1.242,0.24-2.431,0.721-3.568c0.48-1.137,1.201-2.132,2.162-2.988
		c0.961-0.855,2.162-1.541,3.604-2.057c1.441-0.515,3.123-0.773,5.045-0.773c0.844,0,1.688,0.07,2.531,0.211
		s1.605,0.316,2.285,0.527c0.68,0.211,1.26,0.439,1.74,0.686c0.48,0.246,0.844,0.463,1.09,0.65c0.246,0.188,0.41,0.352,0.492,0.492
		c0.082,0.141,0.141,0.299,0.176,0.475s0.07,0.393,0.105,0.65c0.035,0.258,0.053,0.575,0.053,0.949c0,0.399-0.018,0.744-0.053,1.037
		c-0.035,0.293-0.094,0.533-0.176,0.721c-0.083,0.188-0.182,0.322-0.299,0.404c-0.118,0.083-0.246,0.123-0.387,0.123
		c-0.211,0-0.516-0.128-0.914-0.387c-0.399-0.258-0.914-0.533-1.547-0.826c-0.633-0.293-1.377-0.568-2.232-0.826
		c-0.856-0.258-1.834-0.387-2.936-0.387c-0.984,0-1.852,0.111-2.602,0.334c-0.75,0.223-1.366,0.54-1.846,0.949
		c-0.48,0.41-0.844,0.896-1.09,1.459s-0.369,1.172-0.369,1.828c0,0.914,0.234,1.682,0.703,2.303
		c0.469,0.621,1.078,1.166,1.828,1.635c0.75,0.469,1.605,0.891,2.566,1.266c0.961,0.375,1.939,0.762,2.936,1.16
		c0.996,0.399,1.98,0.844,2.953,1.336c0.972,0.492,1.833,1.09,2.584,1.793c0.75,0.703,1.354,1.547,1.811,2.531
		C25.014,61.58,25.242,62.752,25.242,64.111z"/>
	<path fill="#FFFFFF" d="M76.922,72.725c0,0.188-0.041,0.346-0.123,0.475c-0.083,0.129-0.229,0.24-0.439,0.334
		c-0.211,0.093-0.487,0.163-0.826,0.211c-0.34,0.047-0.756,0.07-1.248,0.07c-0.54,0-0.979-0.023-1.318-0.07
		c-0.34-0.048-0.61-0.118-0.809-0.211c-0.199-0.094-0.334-0.205-0.404-0.334s-0.105-0.287-0.105-0.475v-4.184
		c-1.805,1.992-3.586,3.445-5.344,4.359s-3.539,1.371-5.344,1.371c-2.109,0-3.885-0.352-5.326-1.055s-2.607-1.658-3.498-2.865
		c-0.891-1.207-1.529-2.613-1.916-4.219s-0.58-3.557-0.58-5.854V41.083c0-0.188,0.041-0.346,0.123-0.475
		c0.082-0.128,0.24-0.246,0.475-0.352c0.234-0.105,0.539-0.176,0.914-0.211c0.375-0.035,0.844-0.053,1.406-0.053
		s1.031,0.018,1.406,0.053c0.375,0.035,0.673,0.105,0.896,0.211c0.223,0.105,0.381,0.223,0.475,0.352
		c0.093,0.129,0.141,0.287,0.141,0.475v18.422c0,1.852,0.135,3.334,0.404,4.448c0.269,1.113,0.68,2.063,1.23,2.848
		c0.55,0.785,1.248,1.395,2.092,1.828s1.828,0.65,2.953,0.65c1.453,0,2.9-0.516,4.342-1.547s2.971-2.543,4.588-4.535V41.083
		c0-0.188,0.041-0.346,0.123-0.475c0.082-0.128,0.24-0.246,0.475-0.352c0.234-0.105,0.533-0.176,0.896-0.211
		c0.363-0.035,0.838-0.053,1.424-0.053c0.563,0,1.031,0.018,1.406,0.053c0.375,0.035,0.668,0.105,0.879,0.211
		s0.369,0.223,0.475,0.352c0.105,0.129,0.158,0.287,0.158,0.475V72.725z"/>
	<path fill="#FFFFFF" d="M133.031,56.482c0,2.742-0.299,5.209-0.896,7.401s-1.477,4.061-2.637,5.607s-2.584,2.73-4.271,3.551
		s-3.621,1.23-5.801,1.23c-1.008,0-1.939-0.101-2.795-0.299c-0.856-0.199-1.693-0.521-2.514-0.967
		c-0.821-0.445-1.641-1.008-2.461-1.688c-0.821-0.68-1.688-1.5-2.602-2.461v3.867c0,0.188-0.047,0.352-0.141,0.492
		c-0.094,0.141-0.246,0.252-0.457,0.334s-0.475,0.146-0.791,0.193c-0.316,0.047-0.721,0.07-1.213,0.07
		c-0.469,0-0.867-0.023-1.195-0.07c-0.329-0.048-0.598-0.111-0.809-0.193s-0.352-0.193-0.422-0.334s-0.105-0.305-0.105-0.492V25.755
		c0-0.188,0.041-0.352,0.123-0.492c0.082-0.141,0.234-0.258,0.457-0.352c0.223-0.093,0.521-0.164,0.896-0.211
		c0.375-0.047,0.844-0.07,1.406-0.07c0.585,0,1.066,0.023,1.441,0.07c0.375,0.047,0.668,0.118,0.879,0.211
		c0.211,0.094,0.363,0.211,0.457,0.352c0.093,0.141,0.141,0.305,0.141,0.492v18.949c0.937-0.961,1.846-1.77,2.725-2.426
		c0.879-0.656,1.74-1.189,2.584-1.6c0.844-0.41,1.688-0.708,2.531-0.896c0.844-0.188,1.734-0.281,2.672-0.281
		c2.297,0,4.259,0.457,5.889,1.371c1.629,0.914,2.953,2.139,3.973,3.674c1.02,1.535,1.763,3.334,2.232,5.396
		C132.797,52.005,133.031,54.185,133.031,56.482z M127.02,57.15c0-1.617-0.124-3.187-0.372-4.711
		c-0.248-1.523-0.678-2.871-1.291-4.043c-0.613-1.172-1.427-2.115-2.441-2.83c-1.014-0.715-2.275-1.072-3.785-1.072
		c-0.755,0-1.498,0.105-2.228,0.316c-0.731,0.211-1.474,0.563-2.229,1.055s-1.539,1.125-2.353,1.898
		c-0.813,0.773-1.68,1.746-2.599,2.918v12.622c1.604,1.945,3.136,3.428,4.598,4.447s2.983,1.529,4.563,1.529
		c1.461,0,2.711-0.352,3.749-1.055s1.881-1.635,2.529-2.795c0.648-1.16,1.12-2.461,1.415-3.902
		C126.872,60.085,127.02,58.626,127.02,57.15z"/>
	<path fill="#FFFFFF" d="M180.176,81.443c0.141,0.398,0.211,0.715,0.211,0.949c0,0.233-0.094,0.409-0.281,0.527
		c-0.188,0.117-0.475,0.198-0.861,0.246c-0.387,0.047-0.896,0.07-1.529,0.07c-0.61,0-1.102-0.018-1.477-0.053
		c-0.375-0.035-0.674-0.083-0.896-0.141c-0.223-0.059-0.393-0.158-0.51-0.299c-0.118-0.141-0.211-0.305-0.281-0.492l-21.27-58.325
		c-0.164-0.398-0.246-0.715-0.246-0.949c0-0.234,0.093-0.41,0.281-0.527c0.188-0.117,0.475-0.193,0.861-0.229
		s0.896-0.053,1.529-0.053c0.609,0,1.102,0.012,1.477,0.035c0.375,0.023,0.68,0.076,0.914,0.158c0.234,0.083,0.404,0.182,0.51,0.299
		c0.105,0.118,0.193,0.27,0.264,0.457L180.176,81.443z"/>
	<path fill="#FFFFFF" d="M230.907,72.408c0,0.234-0.06,0.439-0.176,0.615c-0.118,0.176-0.323,0.322-0.615,0.439
		c-0.294,0.117-0.681,0.205-1.16,0.264c-0.481,0.058-1.085,0.088-1.811,0.088c-0.773,0-1.401-0.03-1.881-0.088
		c-0.481-0.059-0.861-0.146-1.143-0.264s-0.481-0.264-0.598-0.439c-0.118-0.176-0.176-0.381-0.176-0.615v-3.621
		c-1.735,1.875-3.498,3.281-5.291,4.219c-1.793,0.937-3.651,1.406-5.572,1.406c-2.157,0-3.968-0.352-5.432-1.055
		c-1.466-0.703-2.649-1.664-3.551-2.883c-0.903-1.219-1.547-2.631-1.934-4.236s-0.58-3.604-0.58-5.995V41.048
		c0-0.234,0.063-0.439,0.193-0.615c0.128-0.176,0.362-0.322,0.703-0.439c0.339-0.117,0.796-0.205,1.371-0.264
		c0.573-0.058,1.283-0.088,2.127-0.088c0.866,0,1.582,0.03,2.145,0.088c0.563,0.059,1.013,0.146,1.354,0.264
		c0.339,0.118,0.58,0.264,0.721,0.439s0.211,0.381,0.211,0.615v17.719c0,1.641,0.105,2.895,0.316,3.762s0.532,1.611,0.967,2.232
		c0.433,0.621,0.984,1.102,1.652,1.441s1.446,0.51,2.338,0.51c1.125,0,2.255-0.41,3.393-1.23c1.136-0.82,2.349-2.016,3.639-3.586
		V41.048c0-0.234,0.063-0.439,0.193-0.615c0.128-0.176,0.362-0.322,0.703-0.439c0.339-0.117,0.791-0.205,1.354-0.264
		c0.563-0.058,1.276-0.088,2.145-0.088c0.866,0,1.582,0.03,2.145,0.088c0.563,0.059,1.007,0.146,1.336,0.264
		c0.327,0.118,0.563,0.264,0.703,0.439s0.211,0.381,0.211,0.615V72.408z"/>
	<path fill="#FFFFFF" d="M276.223,43.966c0,0.844-0.023,1.535-0.07,2.074c-0.047,0.54-0.117,0.961-0.211,1.266
		c-0.094,0.305-0.217,0.516-0.369,0.633c-0.152,0.118-0.346,0.176-0.58,0.176c-0.188,0-0.398-0.041-0.633-0.123
		c-0.234-0.082-0.498-0.17-0.791-0.264c-0.293-0.093-0.615-0.181-0.967-0.264c-0.352-0.082-0.738-0.123-1.16-0.123
		c-0.492,0-0.984,0.1-1.477,0.299c-0.492,0.199-1.002,0.51-1.529,0.932s-1.078,0.984-1.652,1.688s-1.189,1.57-1.846,2.602v19.547
		c0,0.234-0.07,0.439-0.211,0.615s-0.381,0.322-0.721,0.439s-0.791,0.205-1.354,0.264c-0.563,0.058-1.277,0.088-2.145,0.088
		s-1.582-0.03-2.145-0.088c-0.563-0.059-1.014-0.146-1.354-0.264s-0.58-0.264-0.721-0.439s-0.211-0.381-0.211-0.615v-31.36
		c0-0.234,0.059-0.439,0.176-0.615s0.328-0.322,0.633-0.439c0.305-0.117,0.697-0.205,1.178-0.264
		c0.48-0.058,1.084-0.088,1.811-0.088c0.75,0,1.371,0.03,1.863,0.088c0.492,0.059,0.873,0.146,1.143,0.264
		c0.27,0.118,0.463,0.264,0.58,0.439s0.176,0.381,0.176,0.615v3.902c0.82-1.172,1.594-2.139,2.32-2.9
		c0.727-0.761,1.418-1.365,2.074-1.811c0.656-0.445,1.313-0.756,1.969-0.932s1.313-0.264,1.969-0.264
		c0.305,0,0.633,0.018,0.984,0.053s0.715,0.094,1.09,0.176c0.375,0.083,0.703,0.176,0.984,0.281s0.486,0.217,0.615,0.334
		c0.129,0.118,0.223,0.246,0.281,0.387s0.111,0.334,0.158,0.58s0.082,0.615,0.105,1.107S276.223,43.123,276.223,43.966z"/>
	<path fill="#FFFFFF" d="M329.52,56.306c0,2.79-0.305,5.297-0.914,7.524s-1.488,4.125-2.637,5.695s-2.561,2.777-4.236,3.621
		s-3.58,1.266-5.713,1.266c-1.055,0-2.039-0.101-2.953-0.299c-0.914-0.199-1.787-0.521-2.619-0.967s-1.652-1.008-2.461-1.688
		s-1.635-1.5-2.479-2.461v3.41c0,0.258-0.064,0.475-0.193,0.65s-0.34,0.322-0.633,0.439s-0.686,0.198-1.178,0.246
		c-0.492,0.047-1.09,0.07-1.793,0.07c-0.727,0-1.33-0.023-1.811-0.07c-0.48-0.048-0.867-0.129-1.16-0.246s-0.498-0.264-0.615-0.439
		s-0.176-0.393-0.176-0.65V26.177c0-0.234,0.07-0.445,0.211-0.633c0.141-0.188,0.381-0.346,0.721-0.475
		c0.34-0.128,0.791-0.229,1.354-0.299s1.277-0.105,2.145-0.105s1.582,0.035,2.145,0.105s1.014,0.17,1.354,0.299
		c0.34,0.129,0.58,0.287,0.721,0.475c0.141,0.188,0.211,0.399,0.211,0.633v17.332c0.797-0.796,1.594-1.477,2.391-2.039
		s1.594-1.025,2.391-1.389c0.797-0.363,1.617-0.627,2.461-0.791c0.844-0.164,1.734-0.246,2.672-0.246
		c2.32,0,4.289,0.463,5.906,1.389c1.617,0.926,2.936,2.174,3.955,3.744c1.02,1.57,1.764,3.405,2.232,5.502
		C329.285,51.777,329.52,53.986,329.52,56.306z M320.344,56.939c0-1.336-0.1-2.625-0.299-3.867
		c-0.199-1.242-0.545-2.343-1.037-3.305c-0.492-0.961-1.131-1.728-1.916-2.303c-0.785-0.574-1.775-0.861-2.971-0.861
		c-0.586,0-1.16,0.083-1.723,0.246c-0.563,0.164-1.143,0.445-1.74,0.844c-0.598,0.399-1.213,0.914-1.846,1.547
		s-1.301,1.418-2.004,2.355v10.407c1.242,1.594,2.432,2.807,3.568,3.639s2.326,1.248,3.568,1.248c1.148,0,2.121-0.293,2.918-0.879
		s1.459-1.348,1.986-2.285s0.908-2.004,1.143-3.2C320.227,59.33,320.344,58.134,320.344,56.939z"/>
	<path fill="#FFFFFF" d="M379.582,72.514c0,0.328-0.117,0.586-0.352,0.773s-0.604,0.321-1.107,0.404
		c-0.504,0.082-1.248,0.123-2.232,0.123c-1.055,0-1.822-0.041-2.303-0.123c-0.48-0.083-0.82-0.217-1.02-0.404
		s-0.299-0.445-0.299-0.773v-2.496c-1.289,1.383-2.76,2.461-4.412,3.234s-3.486,1.16-5.502,1.16c-1.664,0-3.193-0.217-4.588-0.65
		s-2.602-1.078-3.621-1.934s-1.811-1.916-2.373-3.182s-0.844-2.742-0.844-4.43c0-1.828,0.357-3.416,1.072-4.764
		c0.715-1.348,1.781-2.461,3.199-3.34s3.182-1.529,5.291-1.951s4.559-0.633,7.348-0.633h3.059V51.63c0-0.984-0.1-1.846-0.299-2.584
		s-0.527-1.354-0.984-1.846s-1.066-0.855-1.828-1.09c-0.762-0.234-1.705-0.352-2.83-0.352c-1.477,0-2.795,0.164-3.955,0.492
		c-1.16,0.329-2.186,0.691-3.076,1.09c-0.891,0.399-1.635,0.762-2.232,1.09c-0.598,0.329-1.084,0.492-1.459,0.492
		c-0.258,0-0.486-0.082-0.686-0.246c-0.199-0.164-0.363-0.398-0.492-0.703c-0.129-0.304-0.229-0.68-0.299-1.125
		c-0.07-0.445-0.105-0.937-0.105-1.477c0-0.726,0.059-1.301,0.176-1.723s0.34-0.803,0.668-1.143
		c0.328-0.339,0.902-0.715,1.723-1.125c0.82-0.41,1.781-0.791,2.883-1.143s2.303-0.638,3.604-0.861
		c1.301-0.223,2.643-0.334,4.025-0.334c2.461,0,4.564,0.241,6.311,0.721c1.746,0.48,3.182,1.219,4.307,2.215
		c1.125,0.997,1.945,2.28,2.461,3.85c0.516,1.57,0.773,3.434,0.773,5.59V72.514z M370.898,59.083h-3.375
		c-1.43,0-2.648,0.105-3.656,0.316s-1.828,0.527-2.461,0.949s-1.096,0.932-1.389,1.53s-0.439,1.283-0.439,2.057
		c0,1.313,0.416,2.344,1.248,3.094s1.986,1.125,3.463,1.125c1.242,0,2.385-0.316,3.428-0.949s2.104-1.559,3.182-2.777V59.083z"/>
	<path fill="#FFFFFF" d="M434.637,72.408c0,0.234-0.07,0.439-0.211,0.615s-0.375,0.322-0.703,0.439s-0.779,0.205-1.354,0.264
		c-0.574,0.058-1.283,0.088-2.127,0.088c-0.867,0-1.588-0.03-2.162-0.088c-0.574-0.059-1.025-0.146-1.354-0.264
		s-0.563-0.264-0.703-0.439s-0.211-0.381-0.211-0.615V54.513c0-1.523-0.111-2.719-0.334-3.586c-0.223-0.867-0.545-1.611-0.967-2.232
		c-0.422-0.621-0.967-1.102-1.635-1.441c-0.668-0.339-1.447-0.51-2.338-0.51c-1.125,0-2.262,0.41-3.41,1.23
		c-1.148,0.821-2.344,2.016-3.586,3.586v20.848c0,0.234-0.07,0.439-0.211,0.615s-0.381,0.322-0.721,0.439s-0.791,0.205-1.354,0.264
		c-0.563,0.058-1.277,0.088-2.145,0.088s-1.582-0.03-2.145-0.088c-0.563-0.059-1.014-0.146-1.354-0.264s-0.58-0.264-0.721-0.439
		s-0.211-0.381-0.211-0.615v-31.36c0-0.234,0.059-0.439,0.176-0.615s0.328-0.322,0.633-0.439c0.305-0.117,0.697-0.205,1.178-0.264
		c0.48-0.058,1.084-0.088,1.811-0.088c0.75,0,1.371,0.03,1.863,0.088c0.492,0.059,0.873,0.146,1.143,0.264
		c0.27,0.118,0.463,0.264,0.58,0.439s0.176,0.381,0.176,0.615v3.621c1.734-1.875,3.498-3.281,5.291-4.219
		c1.793-0.937,3.662-1.406,5.607-1.406c2.133,0,3.932,0.352,5.396,1.055s2.648,1.658,3.551,2.865
		c0.902,1.208,1.553,2.619,1.951,4.236s0.598,3.563,0.598,5.836V72.408z"/>
	<path fill="#FFFFFF" d="M6.39,99.588c0,0.111-0.009,0.207-0.026,0.285c-0.018,0.08-0.038,0.145-0.062,0.193
		c-0.023,0.051-0.056,0.086-0.097,0.105c-0.041,0.021-0.085,0.031-0.132,0.031H1.204c-0.123,0-0.224-0.041-0.303-0.123
		s-0.119-0.22-0.119-0.413v-0.299c0-0.082,0.006-0.155,0.018-0.22s0.029-0.129,0.053-0.193s0.056-0.133,0.097-0.207
		c0.041-0.072,0.091-0.156,0.149-0.25l3.489-5.432H1.204c-0.094,0-0.168-0.049-0.224-0.145c-0.056-0.098-0.083-0.254-0.083-0.471
		c0-0.105,0.006-0.197,0.018-0.277c0.012-0.078,0.031-0.143,0.057-0.193c0.026-0.049,0.059-0.084,0.097-0.105
		c0.038-0.02,0.083-0.03,0.136-0.03h4.535c0.064,0,0.122,0.009,0.171,0.026s0.092,0.047,0.127,0.088s0.063,0.094,0.083,0.158
		s0.031,0.146,0.031,0.246v0.281c0,0.082-0.006,0.158-0.018,0.229s-0.029,0.139-0.053,0.207c-0.023,0.066-0.056,0.139-0.097,0.215
		s-0.091,0.161-0.149,0.255l-3.472,5.432h3.709c0.047,0,0.089,0.011,0.127,0.03c0.038,0.021,0.07,0.055,0.097,0.102
		s0.048,0.109,0.066,0.189C6.381,99.381,6.39,99.477,6.39,99.588z"/>
	<path fill="#FFFFFF" d="M14.801,95.686c0,0.229-0.058,0.391-0.172,0.488c-0.115,0.096-0.246,0.145-0.393,0.145H9.026
		c0,0.439,0.044,0.835,0.132,1.187s0.235,0.653,0.442,0.905c0.206,0.252,0.474,0.445,0.803,0.58c0.33,0.135,0.733,0.202,1.21,0.202
		c0.376,0,0.712-0.03,1.006-0.093c0.294-0.061,0.549-0.13,0.764-0.206s0.392-0.146,0.53-0.206c0.139-0.063,0.243-0.093,0.314-0.093
		c0.041,0,0.078,0.011,0.11,0.03c0.032,0.021,0.057,0.052,0.075,0.093s0.031,0.099,0.04,0.171c0.009,0.074,0.013,0.163,0.013,0.269
		c0,0.076-0.003,0.143-0.009,0.198s-0.013,0.105-0.022,0.148c-0.009,0.045-0.023,0.084-0.044,0.119s-0.047,0.069-0.079,0.102
		s-0.127,0.085-0.286,0.158s-0.363,0.145-0.615,0.215s-0.543,0.133-0.875,0.189c-0.331,0.055-0.684,0.083-1.059,0.083
		c-0.65,0-1.22-0.091-1.709-0.272s-0.901-0.451-1.235-0.809s-0.586-0.806-0.756-1.345s-0.255-1.166-0.255-1.881
		c0-0.68,0.088-1.29,0.264-1.833c0.176-0.541,0.429-1.002,0.76-1.379c0.331-0.379,0.731-0.668,1.2-0.871
		c0.469-0.201,0.993-0.303,1.573-0.303c0.621,0,1.15,0.1,1.586,0.299s0.795,0.467,1.077,0.805c0.281,0.336,0.488,0.732,0.62,1.186
		c0.132,0.455,0.198,0.939,0.198,1.455V95.686z M13.342,95.255c0.018-0.762-0.152-1.359-0.508-1.793
		c-0.357-0.434-0.886-0.65-1.587-0.65c-0.36,0-0.675,0.067-0.946,0.202s-0.498,0.313-0.681,0.536
		c-0.183,0.223-0.324,0.481-0.424,0.778c-0.1,0.295-0.156,0.604-0.168,0.927H13.342z"/>
	<path fill="#FFFFFF" d="M18.624,89.401c0,0.34-0.064,0.571-0.193,0.694s-0.366,0.185-0.712,0.185c-0.34,0-0.573-0.06-0.699-0.181
		c-0.126-0.119-0.189-0.347-0.189-0.681c0-0.34,0.064-0.571,0.193-0.694s0.366-0.185,0.712-0.185c0.34,0,0.573,0.06,0.699,0.181
		C18.561,88.84,18.624,89.067,18.624,89.401z M18.457,99.983c0,0.047-0.012,0.087-0.035,0.118c-0.023,0.033-0.062,0.061-0.114,0.084
		s-0.126,0.041-0.22,0.053s-0.214,0.018-0.36,0.018c-0.141,0-0.258-0.006-0.352-0.018s-0.168-0.029-0.224-0.053
		s-0.094-0.051-0.114-0.084c-0.021-0.031-0.031-0.071-0.031-0.118v-7.91c0-0.041,0.01-0.079,0.031-0.114s0.059-0.064,0.114-0.088
		s0.13-0.041,0.224-0.053s0.211-0.018,0.352-0.018c0.146,0,0.267,0.006,0.36,0.018s0.167,0.029,0.22,0.053s0.091,0.053,0.114,0.088
		s0.035,0.073,0.035,0.114V99.983z"/>
	<path fill="#FFFFFF" d="M25.251,99.403c0,0.17-0.012,0.305-0.035,0.404s-0.059,0.173-0.105,0.22s-0.117,0.091-0.211,0.132
		s-0.201,0.075-0.321,0.101c-0.12,0.027-0.248,0.049-0.382,0.066s-0.27,0.026-0.404,0.026c-0.41,0-0.762-0.055-1.055-0.163
		c-0.293-0.107-0.533-0.271-0.721-0.492c-0.188-0.219-0.324-0.497-0.409-0.834s-0.127-0.734-0.127-1.191v-4.623h-1.107
		c-0.088,0-0.158-0.047-0.211-0.141s-0.079-0.246-0.079-0.457c0-0.111,0.007-0.205,0.022-0.281s0.034-0.139,0.057-0.189
		c0.023-0.049,0.054-0.084,0.092-0.105c0.038-0.02,0.081-0.03,0.127-0.03h1.099v-1.881c0-0.041,0.01-0.079,0.031-0.114
		s0.059-0.066,0.114-0.092c0.056-0.027,0.13-0.046,0.224-0.058s0.211-0.018,0.352-0.018c0.146,0,0.267,0.006,0.36,0.018
		s0.167,0.03,0.22,0.058c0.053,0.025,0.091,0.057,0.114,0.092s0.035,0.073,0.035,0.114v1.881h2.03c0.047,0,0.088,0.011,0.123,0.03
		c0.035,0.021,0.066,0.057,0.092,0.105c0.026,0.051,0.045,0.113,0.057,0.189s0.018,0.17,0.018,0.281
		c0,0.211-0.026,0.363-0.079,0.457s-0.123,0.141-0.211,0.141h-2.03v4.412c0,0.545,0.081,0.957,0.242,1.234
		c0.161,0.279,0.45,0.418,0.866,0.418c0.135,0,0.255-0.014,0.36-0.039c0.105-0.027,0.199-0.055,0.281-0.084s0.152-0.057,0.211-0.084
		c0.059-0.025,0.111-0.039,0.158-0.039c0.029,0,0.057,0.008,0.083,0.021c0.026,0.016,0.047,0.043,0.062,0.084
		s0.028,0.097,0.04,0.167S25.251,99.298,25.251,99.403z"/>
	<path fill="#FFFFFF" d="M32.133,97.83c0,0.404-0.075,0.765-0.224,1.081s-0.362,0.583-0.637,0.8s-0.604,0.381-0.984,0.492
		s-0.8,0.167-1.257,0.167c-0.281,0-0.549-0.022-0.804-0.065c-0.255-0.045-0.483-0.101-0.686-0.168
		c-0.202-0.066-0.374-0.137-0.514-0.211c-0.141-0.072-0.243-0.139-0.308-0.197s-0.111-0.141-0.141-0.246s-0.044-0.249-0.044-0.431
		c0-0.111,0.006-0.205,0.018-0.281s0.026-0.138,0.044-0.185s0.042-0.08,0.075-0.102c0.032-0.02,0.069-0.03,0.11-0.03
		c0.064,0,0.16,0.04,0.286,0.118c0.126,0.08,0.281,0.166,0.466,0.26s0.403,0.18,0.655,0.26c0.252,0.078,0.542,0.118,0.87,0.118
		c0.246,0,0.469-0.026,0.668-0.079s0.372-0.13,0.519-0.232s0.259-0.233,0.338-0.392s0.119-0.346,0.119-0.563
		c0-0.223-0.057-0.41-0.171-0.563s-0.265-0.287-0.453-0.404s-0.398-0.222-0.633-0.312c-0.234-0.092-0.476-0.187-0.725-0.286
		s-0.492-0.212-0.729-0.339c-0.237-0.125-0.45-0.279-0.637-0.461s-0.338-0.398-0.453-0.65s-0.171-0.554-0.171-0.905
		c0-0.311,0.06-0.608,0.18-0.892c0.12-0.285,0.3-0.533,0.541-0.748c0.24-0.213,0.541-0.385,0.901-0.514s0.781-0.193,1.261-0.193
		c0.211,0,0.422,0.018,0.633,0.053s0.401,0.079,0.571,0.132s0.315,0.11,0.435,0.171c0.12,0.063,0.211,0.116,0.272,0.163
		s0.103,0.088,0.123,0.123s0.035,0.075,0.044,0.118c0.009,0.045,0.018,0.099,0.026,0.163s0.013,0.144,0.013,0.237
		c0,0.1-0.004,0.186-0.013,0.26c-0.009,0.072-0.023,0.133-0.044,0.18s-0.045,0.08-0.075,0.102c-0.029,0.02-0.062,0.03-0.097,0.03
		c-0.053,0-0.129-0.032-0.229-0.097s-0.229-0.133-0.387-0.207c-0.158-0.072-0.344-0.142-0.558-0.206s-0.458-0.097-0.734-0.097
		c-0.246,0-0.463,0.027-0.65,0.084c-0.188,0.055-0.341,0.135-0.461,0.236c-0.12,0.104-0.211,0.225-0.272,0.365
		s-0.092,0.293-0.092,0.457c0,0.229,0.059,0.42,0.176,0.576c0.117,0.154,0.27,0.291,0.457,0.408s0.401,0.223,0.642,0.316
		s0.485,0.19,0.734,0.29s0.495,0.211,0.738,0.334s0.458,0.272,0.646,0.448s0.338,0.387,0.453,0.633S32.133,97.49,32.133,97.83z"/>
	<path fill="#FFFFFF" d="M39.894,98.779c0,0.1-0.003,0.187-0.009,0.26s-0.016,0.135-0.031,0.184
		c-0.015,0.051-0.032,0.095-0.053,0.133s-0.067,0.094-0.141,0.166c-0.073,0.074-0.198,0.165-0.374,0.273s-0.374,0.205-0.593,0.289
		c-0.22,0.086-0.458,0.154-0.716,0.207s-0.524,0.079-0.8,0.079c-0.568,0-1.072-0.094-1.512-0.281s-0.807-0.462-1.103-0.821
		c-0.296-0.361-0.521-0.803-0.677-1.328c-0.155-0.523-0.233-1.129-0.233-1.814c0-0.779,0.095-1.449,0.286-2.008
		c0.19-0.561,0.451-1.019,0.782-1.376s0.721-0.622,1.169-0.796c0.448-0.172,0.933-0.259,1.455-0.259c0.252,0,0.497,0.023,0.734,0.07
		s0.456,0.108,0.655,0.185s0.376,0.164,0.532,0.264s0.268,0.185,0.338,0.255s0.119,0.126,0.145,0.167s0.048,0.09,0.066,0.145
		c0.018,0.057,0.029,0.119,0.035,0.189s0.009,0.158,0.009,0.264c0,0.229-0.026,0.389-0.079,0.479
		c-0.053,0.092-0.117,0.137-0.193,0.137c-0.088,0-0.189-0.049-0.303-0.145c-0.114-0.098-0.259-0.204-0.435-0.321
		s-0.388-0.224-0.637-0.321c-0.249-0.096-0.543-0.145-0.883-0.145c-0.697,0-1.232,0.268-1.604,0.805
		c-0.372,0.535-0.558,1.313-0.558,2.333c0,0.51,0.048,0.957,0.145,1.341s0.239,0.704,0.426,0.962s0.417,0.45,0.69,0.575
		c0.272,0.127,0.584,0.189,0.936,0.189c0.334,0,0.627-0.053,0.879-0.158s0.47-0.221,0.655-0.348c0.185-0.125,0.34-0.239,0.466-0.342
		s0.224-0.154,0.294-0.154c0.041,0,0.076,0.012,0.105,0.035s0.054,0.063,0.075,0.119s0.035,0.126,0.044,0.211
		S39.894,98.662,39.894,98.779z"/>
	<path fill="#FFFFFF" d="M48.63,99.983c0,0.047-0.012,0.087-0.035,0.118c-0.023,0.033-0.062,0.061-0.114,0.084
		s-0.126,0.041-0.22,0.053s-0.211,0.018-0.352,0.018c-0.146,0-0.267-0.006-0.36-0.018s-0.167-0.029-0.22-0.053
		s-0.091-0.051-0.114-0.084c-0.023-0.031-0.035-0.071-0.035-0.118v-4.632c0-0.451-0.035-0.814-0.105-1.09s-0.173-0.513-0.308-0.712
		s-0.309-0.352-0.523-0.457s-0.461-0.158-0.743-0.158c-0.363,0-0.727,0.129-1.09,0.387s-0.744,0.636-1.143,1.134v5.528
		c0,0.047-0.012,0.087-0.035,0.118c-0.023,0.033-0.062,0.061-0.114,0.084s-0.126,0.041-0.22,0.053s-0.214,0.018-0.36,0.018
		c-0.141,0-0.258-0.006-0.352-0.018s-0.168-0.029-0.224-0.053s-0.094-0.051-0.114-0.084c-0.021-0.031-0.031-0.071-0.031-0.118
		V88.241c0-0.047,0.01-0.088,0.031-0.123s0.059-0.064,0.114-0.088s0.13-0.041,0.224-0.053s0.211-0.018,0.352-0.018
		c0.146,0,0.267,0.006,0.36,0.018s0.167,0.029,0.22,0.053s0.091,0.053,0.114,0.088s0.035,0.076,0.035,0.123v4.737
		c0.416-0.439,0.835-0.766,1.257-0.98c0.422-0.213,0.847-0.32,1.274-0.32c0.527,0,0.971,0.09,1.332,0.268
		c0.36,0.18,0.652,0.418,0.875,0.717s0.382,0.648,0.479,1.051c0.097,0.4,0.145,0.886,0.145,1.454V99.983z"/>
	<path fill="#FFFFFF" d="M55.898,92.592c0,0.129-0.003,0.237-0.009,0.325s-0.018,0.157-0.035,0.206
		c-0.018,0.051-0.04,0.088-0.066,0.115c-0.026,0.025-0.063,0.039-0.11,0.039s-0.104-0.014-0.171-0.039
		c-0.067-0.027-0.144-0.053-0.229-0.08c-0.085-0.025-0.18-0.051-0.286-0.074s-0.22-0.035-0.343-0.035
		c-0.146,0-0.29,0.029-0.431,0.088s-0.289,0.155-0.444,0.29s-0.318,0.313-0.488,0.536s-0.357,0.495-0.563,0.817v5.203
		c0,0.047-0.012,0.087-0.035,0.118c-0.023,0.033-0.062,0.061-0.114,0.084s-0.126,0.041-0.22,0.053s-0.214,0.018-0.36,0.018
		c-0.141,0-0.258-0.006-0.352-0.018s-0.168-0.029-0.224-0.053s-0.094-0.051-0.114-0.084c-0.021-0.031-0.031-0.071-0.031-0.118v-7.91
		c0-0.047,0.009-0.087,0.026-0.118c0.018-0.033,0.053-0.063,0.105-0.088c0.053-0.027,0.12-0.045,0.202-0.053
		c0.082-0.01,0.19-0.014,0.325-0.014c0.129,0,0.236,0.004,0.321,0.014c0.085,0.008,0.151,0.025,0.198,0.053
		c0.047,0.025,0.081,0.055,0.101,0.088c0.021,0.031,0.031,0.071,0.031,0.118v1.151c0.217-0.316,0.42-0.574,0.611-0.773
		s0.371-0.355,0.541-0.471c0.17-0.113,0.338-0.193,0.505-0.236c0.167-0.045,0.335-0.066,0.505-0.066
		c0.076,0,0.163,0.004,0.259,0.014c0.097,0.008,0.198,0.024,0.303,0.048s0.201,0.05,0.286,0.079s0.145,0.059,0.18,0.088
		s0.059,0.057,0.07,0.084c0.012,0.025,0.022,0.06,0.031,0.101s0.015,0.101,0.018,0.181C55.897,92.35,55.898,92.457,55.898,92.592z"
		/>
	<path fill="#FFFFFF" d="M59.168,89.401c0,0.34-0.064,0.571-0.193,0.694s-0.366,0.185-0.712,0.185c-0.34,0-0.573-0.06-0.699-0.181
		c-0.126-0.119-0.189-0.347-0.189-0.681c0-0.34,0.064-0.571,0.193-0.694s0.366-0.185,0.712-0.185c0.34,0,0.573,0.06,0.699,0.181
		C59.105,88.84,59.168,89.067,59.168,89.401z M59.001,99.983c0,0.047-0.012,0.087-0.035,0.118c-0.023,0.033-0.062,0.061-0.114,0.084
		s-0.126,0.041-0.22,0.053s-0.214,0.018-0.36,0.018c-0.141,0-0.258-0.006-0.352-0.018s-0.168-0.029-0.224-0.053
		s-0.094-0.051-0.114-0.084c-0.021-0.031-0.031-0.071-0.031-0.118v-7.91c0-0.041,0.01-0.079,0.031-0.114s0.059-0.064,0.114-0.088
		s0.13-0.041,0.224-0.053s0.211-0.018,0.352-0.018c0.146,0,0.267,0.006,0.36,0.018s0.167,0.029,0.22,0.053s0.091,0.053,0.114,0.088
		s0.035,0.073,0.035,0.114V99.983z"/>
	<path fill="#FFFFFF" d="M63.519,93.049v6.935c0,0.047-0.012,0.087-0.035,0.118c-0.023,0.033-0.063,0.061-0.119,0.084
		s-0.13,0.041-0.224,0.053s-0.211,0.018-0.352,0.018s-0.258-0.006-0.352-0.018s-0.168-0.029-0.224-0.053s-0.095-0.051-0.119-0.084
		c-0.023-0.031-0.035-0.071-0.035-0.118v-6.935h-1.116c-0.094,0-0.164-0.047-0.211-0.141s-0.07-0.246-0.07-0.457
		c0-0.111,0.006-0.205,0.018-0.281s0.029-0.139,0.053-0.189c0.023-0.049,0.053-0.084,0.088-0.105c0.035-0.02,0.076-0.03,0.123-0.03
		h1.116v-0.817c0-0.551,0.051-1.023,0.154-1.42c0.103-0.395,0.258-0.719,0.466-0.971s0.472-0.438,0.791-0.559
		c0.319-0.119,0.696-0.18,1.129-0.18c0.217,0,0.428,0.021,0.633,0.066c0.205,0.043,0.352,0.084,0.439,0.123
		c0.088,0.037,0.149,0.074,0.185,0.109s0.063,0.08,0.083,0.137c0.021,0.055,0.035,0.123,0.044,0.201
		c0.009,0.08,0.013,0.175,0.013,0.286s-0.004,0.2-0.013,0.269c-0.009,0.066-0.022,0.121-0.04,0.162s-0.038,0.068-0.062,0.084
		c-0.023,0.014-0.05,0.021-0.079,0.021c-0.047,0-0.1-0.014-0.158-0.039c-0.059-0.027-0.132-0.057-0.22-0.088
		c-0.088-0.033-0.192-0.063-0.312-0.088c-0.12-0.027-0.259-0.04-0.417-0.04c-0.217,0-0.4,0.035-0.549,0.105
		s-0.271,0.181-0.365,0.329c-0.094,0.15-0.163,0.344-0.207,0.58c-0.044,0.238-0.066,0.526-0.066,0.866v0.861h3.568v-1.881
		c0-0.041,0.012-0.079,0.035-0.114s0.062-0.066,0.114-0.092c0.053-0.027,0.126-0.046,0.22-0.058s0.214-0.018,0.36-0.018
		c0.141,0,0.258,0.006,0.352,0.018s0.167,0.03,0.22,0.058c0.053,0.025,0.091,0.057,0.114,0.092s0.035,0.073,0.035,0.114v1.881h2.021
		c0.047,0,0.089,0.011,0.127,0.03c0.038,0.021,0.069,0.057,0.092,0.105c0.023,0.051,0.042,0.113,0.057,0.189s0.022,0.17,0.022,0.281
		c0,0.211-0.026,0.363-0.079,0.457s-0.123,0.141-0.211,0.141h-2.03v4.412c0,0.545,0.079,0.957,0.237,1.234
		c0.158,0.279,0.448,0.418,0.87,0.418c0.129,0,0.248-0.014,0.356-0.039c0.108-0.027,0.204-0.055,0.286-0.084
		s0.154-0.057,0.215-0.084c0.062-0.025,0.113-0.039,0.154-0.039c0.035,0,0.064,0.008,0.088,0.021
		c0.023,0.016,0.042,0.043,0.057,0.084s0.028,0.097,0.04,0.167s0.018,0.158,0.018,0.264c0,0.17-0.013,0.305-0.04,0.404
		s-0.063,0.173-0.11,0.22s-0.114,0.091-0.202,0.132s-0.192,0.075-0.312,0.101c-0.12,0.027-0.249,0.049-0.387,0.066
		s-0.271,0.026-0.4,0.026c-0.416,0-0.771-0.055-1.063-0.163c-0.293-0.107-0.533-0.271-0.721-0.492
		c-0.188-0.219-0.324-0.497-0.409-0.834s-0.127-0.734-0.127-1.191v-4.623H63.519z"/>
	<path fill="#FFFFFF" d="M81.167,88.821c0,0.111-0.006,0.2-0.018,0.269c-0.012,0.066-0.025,0.121-0.04,0.162
		s-0.034,0.068-0.057,0.084c-0.023,0.014-0.053,0.021-0.088,0.021c-0.041,0-0.092-0.014-0.154-0.039
		c-0.062-0.027-0.136-0.057-0.224-0.088c-0.088-0.033-0.192-0.063-0.312-0.088c-0.12-0.027-0.259-0.04-0.417-0.04
		c-0.217,0-0.401,0.035-0.554,0.105s-0.275,0.181-0.369,0.329c-0.094,0.15-0.161,0.344-0.202,0.58
		c-0.041,0.238-0.062,0.526-0.062,0.866v0.861h1.767c0.047,0,0.086,0.011,0.119,0.03c0.032,0.021,0.062,0.057,0.088,0.105
		c0.026,0.051,0.047,0.113,0.062,0.189s0.022,0.17,0.022,0.281c0,0.211-0.026,0.363-0.079,0.457s-0.123,0.141-0.211,0.141h-1.767
		v6.935c0,0.047-0.012,0.087-0.035,0.118c-0.023,0.033-0.063,0.061-0.119,0.084s-0.13,0.041-0.224,0.053s-0.211,0.018-0.352,0.018
		s-0.258-0.006-0.352-0.018s-0.168-0.029-0.224-0.053s-0.095-0.051-0.119-0.084c-0.023-0.031-0.035-0.071-0.035-0.118v-6.935h-1.116
		c-0.094,0-0.164-0.047-0.211-0.141s-0.07-0.246-0.07-0.457c0-0.111,0.006-0.205,0.018-0.281s0.029-0.139,0.053-0.189
		c0.023-0.049,0.053-0.084,0.088-0.105c0.035-0.02,0.076-0.03,0.123-0.03h1.116v-0.817c0-0.551,0.051-1.023,0.154-1.42
		c0.103-0.395,0.259-0.719,0.47-0.971s0.476-0.438,0.795-0.559c0.319-0.119,0.696-0.18,1.129-0.18c0.205,0,0.404,0.02,0.598,0.057
		c0.193,0.039,0.343,0.08,0.448,0.123c0.105,0.045,0.176,0.084,0.211,0.119s0.064,0.08,0.088,0.137
		c0.023,0.055,0.04,0.123,0.048,0.201C81.163,88.615,81.167,88.71,81.167,88.821z"/>
	<path fill="#FFFFFF" d="M89.104,99.983c0,0.047-0.01,0.087-0.031,0.118c-0.021,0.033-0.057,0.061-0.11,0.084
		s-0.122,0.041-0.207,0.053s-0.189,0.018-0.312,0.018c-0.135,0-0.245-0.006-0.33-0.018s-0.152-0.029-0.202-0.053
		s-0.083-0.051-0.101-0.084c-0.018-0.031-0.026-0.071-0.026-0.118v-1.046c-0.451,0.498-0.896,0.861-1.336,1.09
		s-0.885,0.343-1.336,0.343c-0.527,0-0.971-0.088-1.332-0.264s-0.652-0.414-0.875-0.716s-0.382-0.653-0.479-1.055
		s-0.145-0.89-0.145-1.464v-4.799c0-0.047,0.01-0.087,0.031-0.118c0.021-0.033,0.06-0.063,0.119-0.088
		c0.059-0.027,0.135-0.045,0.229-0.053c0.094-0.01,0.211-0.014,0.352-0.014s0.258,0.004,0.352,0.014
		c0.094,0.008,0.168,0.025,0.224,0.053c0.056,0.025,0.095,0.055,0.119,0.088c0.023,0.031,0.035,0.071,0.035,0.118v4.605
		c0,0.463,0.034,0.834,0.101,1.112s0.17,0.516,0.308,0.711c0.138,0.197,0.312,0.35,0.523,0.457c0.211,0.109,0.457,0.163,0.738,0.163
		c0.363,0,0.725-0.129,1.085-0.387s0.743-0.636,1.147-1.134v-5.528c0-0.047,0.01-0.087,0.031-0.118
		c0.021-0.033,0.06-0.063,0.119-0.088c0.059-0.027,0.133-0.045,0.224-0.053c0.091-0.01,0.209-0.014,0.356-0.014
		c0.141,0,0.258,0.004,0.352,0.014c0.094,0.008,0.167,0.025,0.22,0.053c0.053,0.025,0.092,0.055,0.119,0.088
		c0.026,0.031,0.04,0.071,0.04,0.118V99.983z M84.981,89.507c0,0.322-0.059,0.542-0.176,0.659s-0.334,0.176-0.65,0.176
		s-0.53-0.057-0.642-0.172c-0.111-0.113-0.167-0.326-0.167-0.637c0-0.328,0.057-0.551,0.171-0.668s0.33-0.176,0.646-0.176
		c0.322,0,0.539,0.059,0.65,0.176S84.981,89.196,84.981,89.507z M88.093,89.507c0,0.322-0.059,0.542-0.176,0.659
		s-0.334,0.176-0.65,0.176s-0.53-0.057-0.642-0.172c-0.111-0.113-0.167-0.326-0.167-0.637c0-0.328,0.057-0.551,0.171-0.668
		s0.33-0.176,0.646-0.176c0.322,0,0.539,0.059,0.65,0.176S88.093,89.196,88.093,89.507z"/>
	<path fill="#FFFFFF" d="M96.407,92.592c0,0.129-0.003,0.237-0.009,0.325s-0.018,0.157-0.035,0.206
		c-0.018,0.051-0.04,0.088-0.066,0.115c-0.026,0.025-0.063,0.039-0.11,0.039s-0.104-0.014-0.171-0.039
		c-0.067-0.027-0.144-0.053-0.229-0.08c-0.085-0.025-0.18-0.051-0.286-0.074s-0.22-0.035-0.343-0.035
		c-0.146,0-0.29,0.029-0.431,0.088s-0.289,0.155-0.444,0.29s-0.318,0.313-0.488,0.536s-0.357,0.495-0.563,0.817v5.203
		c0,0.047-0.012,0.087-0.035,0.118c-0.023,0.033-0.062,0.061-0.114,0.084s-0.126,0.041-0.22,0.053s-0.214,0.018-0.36,0.018
		c-0.141,0-0.258-0.006-0.352-0.018s-0.168-0.029-0.224-0.053s-0.094-0.051-0.114-0.084c-0.021-0.031-0.031-0.071-0.031-0.118v-7.91
		c0-0.047,0.009-0.087,0.026-0.118c0.018-0.033,0.053-0.063,0.105-0.088c0.053-0.027,0.12-0.045,0.202-0.053
		c0.082-0.01,0.19-0.014,0.325-0.014c0.129,0,0.236,0.004,0.321,0.014c0.085,0.008,0.151,0.025,0.198,0.053
		c0.047,0.025,0.081,0.055,0.101,0.088c0.021,0.031,0.031,0.071,0.031,0.118v1.151c0.217-0.316,0.42-0.574,0.611-0.773
		s0.371-0.355,0.541-0.471c0.17-0.113,0.338-0.193,0.505-0.236c0.167-0.045,0.335-0.066,0.505-0.066
		c0.076,0,0.163,0.004,0.259,0.014c0.097,0.008,0.198,0.024,0.303,0.048s0.201,0.05,0.286,0.079s0.145,0.059,0.18,0.088
		s0.059,0.057,0.07,0.084c0.012,0.025,0.022,0.06,0.031,0.101s0.015,0.101,0.018,0.181C96.406,92.35,96.407,92.457,96.407,92.592z"
		/>
	<path fill="#FFFFFF" d="M108.624,99.975c0,0.047-0.012,0.088-0.035,0.123s-0.063,0.064-0.119,0.088s-0.133,0.041-0.233,0.053
		s-0.226,0.018-0.378,0.018c-0.158,0-0.289-0.004-0.391-0.014c-0.103-0.008-0.189-0.023-0.259-0.043
		c-0.07-0.021-0.127-0.05-0.171-0.088s-0.083-0.084-0.119-0.137l-3.34-4.377v4.386c0,0.047-0.012,0.087-0.035,0.118
		c-0.023,0.033-0.062,0.061-0.114,0.084s-0.126,0.041-0.22,0.053s-0.214,0.018-0.36,0.018c-0.141,0-0.258-0.006-0.352-0.018
		s-0.168-0.029-0.224-0.053s-0.094-0.051-0.114-0.084c-0.021-0.031-0.031-0.071-0.031-0.118V88.241c0-0.047,0.01-0.088,0.031-0.123
		s0.059-0.064,0.114-0.088s0.13-0.041,0.224-0.053s0.211-0.018,0.352-0.018c0.146,0,0.267,0.006,0.36,0.018s0.167,0.029,0.22,0.053
		s0.091,0.053,0.114,0.088s0.035,0.076,0.035,0.123v7.154l2.988-3.287c0.047-0.059,0.097-0.106,0.149-0.146
		c0.053-0.037,0.116-0.07,0.189-0.096c0.073-0.027,0.16-0.045,0.259-0.053c0.1-0.01,0.22-0.014,0.36-0.014
		c0.146,0,0.27,0.004,0.369,0.014c0.1,0.008,0.18,0.023,0.242,0.043c0.062,0.021,0.105,0.047,0.132,0.08
		c0.026,0.031,0.04,0.074,0.04,0.127c0,0.07-0.019,0.141-0.057,0.211s-0.101,0.152-0.189,0.246l-2.865,2.865l3.217,4.175
		c0.076,0.1,0.13,0.181,0.163,0.241C108.608,99.865,108.624,99.922,108.624,99.975z"/>
	<path fill="#FFFFFF" d="M114.935,92.592c0,0.129-0.003,0.237-0.009,0.325s-0.018,0.157-0.035,0.206
		c-0.018,0.051-0.04,0.088-0.066,0.115c-0.026,0.025-0.063,0.039-0.11,0.039s-0.104-0.014-0.171-0.039
		c-0.067-0.027-0.144-0.053-0.229-0.08c-0.085-0.025-0.18-0.051-0.286-0.074s-0.22-0.035-0.343-0.035
		c-0.146,0-0.29,0.029-0.431,0.088s-0.289,0.155-0.444,0.29s-0.318,0.313-0.488,0.536s-0.357,0.495-0.563,0.817v5.203
		c0,0.047-0.012,0.087-0.035,0.118c-0.023,0.033-0.062,0.061-0.114,0.084s-0.126,0.041-0.22,0.053s-0.214,0.018-0.36,0.018
		c-0.141,0-0.258-0.006-0.352-0.018s-0.168-0.029-0.224-0.053s-0.094-0.051-0.114-0.084c-0.021-0.031-0.031-0.071-0.031-0.118v-7.91
		c0-0.047,0.009-0.087,0.026-0.118c0.018-0.033,0.053-0.063,0.105-0.088c0.053-0.027,0.12-0.045,0.202-0.053
		c0.082-0.01,0.19-0.014,0.325-0.014c0.129,0,0.236,0.004,0.321,0.014c0.085,0.008,0.151,0.025,0.198,0.053
		c0.047,0.025,0.081,0.055,0.101,0.088c0.021,0.031,0.031,0.071,0.031,0.118v1.151c0.217-0.316,0.42-0.574,0.611-0.773
		s0.371-0.355,0.541-0.471c0.17-0.113,0.338-0.193,0.505-0.236c0.167-0.045,0.335-0.066,0.505-0.066
		c0.076,0,0.163,0.004,0.259,0.014c0.097,0.008,0.198,0.024,0.303,0.048s0.201,0.05,0.286,0.079s0.145,0.059,0.18,0.088
		s0.059,0.057,0.07,0.084c0.012,0.025,0.022,0.06,0.031,0.101s0.015,0.101,0.018,0.181C114.933,92.35,114.935,92.457,114.935,92.592
		z"/>
	<path fill="#FFFFFF" d="M118.204,89.401c0,0.34-0.064,0.571-0.193,0.694s-0.366,0.185-0.712,0.185c-0.34,0-0.573-0.06-0.699-0.181
		c-0.126-0.119-0.189-0.347-0.189-0.681c0-0.34,0.064-0.571,0.193-0.694s0.366-0.185,0.712-0.185c0.34,0,0.573,0.06,0.699,0.181
		C118.141,88.84,118.204,89.067,118.204,89.401z M118.037,99.983c0,0.047-0.012,0.087-0.035,0.118
		c-0.023,0.033-0.062,0.061-0.114,0.084s-0.126,0.041-0.22,0.053s-0.214,0.018-0.36,0.018c-0.141,0-0.258-0.006-0.352-0.018
		s-0.168-0.029-0.224-0.053s-0.094-0.051-0.114-0.084c-0.021-0.031-0.031-0.071-0.031-0.118v-7.91c0-0.041,0.01-0.079,0.031-0.114
		s0.059-0.064,0.114-0.088s0.13-0.041,0.224-0.053s0.211-0.018,0.352-0.018c0.146,0,0.267,0.006,0.36,0.018s0.167,0.029,0.22,0.053
		s0.091,0.053,0.114,0.088s0.035,0.073,0.035,0.114V99.983z"/>
	<path fill="#FFFFFF" d="M127.6,91.845c0.176,0,0.296,0.04,0.36,0.118c0.064,0.08,0.097,0.195,0.097,0.348v7.673
		c0,0.047-0.012,0.087-0.035,0.118c-0.023,0.033-0.063,0.061-0.119,0.084s-0.13,0.041-0.224,0.053s-0.208,0.018-0.343,0.018
		c-0.146,0-0.267-0.006-0.36-0.018s-0.168-0.029-0.224-0.053s-0.095-0.051-0.119-0.084c-0.023-0.031-0.035-0.071-0.035-0.118v-6.935
		h-4.087v4.412c0,0.545,0.081,0.957,0.242,1.234c0.161,0.279,0.45,0.418,0.866,0.418c0.135,0,0.255-0.014,0.36-0.039
		c0.105-0.027,0.199-0.055,0.281-0.084s0.152-0.057,0.211-0.084c0.059-0.025,0.111-0.039,0.158-0.039
		c0.029,0,0.057,0.008,0.083,0.021c0.026,0.016,0.047,0.043,0.062,0.084s0.028,0.097,0.04,0.167s0.018,0.158,0.018,0.264
		c0,0.17-0.012,0.304-0.035,0.399c-0.023,0.098-0.059,0.171-0.105,0.221s-0.117,0.095-0.211,0.136s-0.201,0.075-0.321,0.101
		c-0.12,0.027-0.248,0.049-0.382,0.066s-0.27,0.026-0.404,0.026c-0.41,0-0.762-0.055-1.055-0.163
		c-0.293-0.107-0.533-0.271-0.721-0.492c-0.188-0.219-0.324-0.497-0.409-0.834s-0.127-0.734-0.127-1.191v-4.623h-1.107
		c-0.088,0-0.158-0.047-0.211-0.141s-0.079-0.246-0.079-0.457c0-0.111,0.007-0.205,0.022-0.281s0.034-0.139,0.057-0.189
		c0.023-0.049,0.054-0.084,0.092-0.105c0.038-0.02,0.081-0.03,0.127-0.03h1.099v-1.881c0-0.041,0.01-0.079,0.031-0.114
		s0.059-0.066,0.114-0.092c0.056-0.027,0.13-0.046,0.224-0.058s0.211-0.018,0.352-0.018c0.146,0,0.267,0.006,0.36,0.018
		s0.167,0.03,0.22,0.058c0.053,0.025,0.091,0.057,0.114,0.092s0.035,0.073,0.035,0.114v1.881H127.6z M128.224,89.401
		c0,0.34-0.064,0.571-0.193,0.694s-0.366,0.185-0.712,0.185c-0.34,0-0.573-0.06-0.699-0.181c-0.126-0.119-0.189-0.347-0.189-0.681
		c0-0.34,0.064-0.571,0.193-0.694s0.366-0.185,0.712-0.185c0.34,0,0.573,0.06,0.699,0.181
		C128.161,88.84,128.224,89.067,128.224,89.401z"/>
	<path fill="#FFFFFF" d="M135.712,97.83c0,0.404-0.075,0.765-0.224,1.081s-0.362,0.583-0.637,0.8s-0.604,0.381-0.984,0.492
		s-0.8,0.167-1.257,0.167c-0.281,0-0.549-0.022-0.804-0.065c-0.255-0.045-0.483-0.101-0.686-0.168
		c-0.202-0.066-0.374-0.137-0.514-0.211c-0.141-0.072-0.243-0.139-0.308-0.197s-0.111-0.141-0.141-0.246s-0.044-0.249-0.044-0.431
		c0-0.111,0.006-0.205,0.018-0.281s0.026-0.138,0.044-0.185s0.042-0.08,0.075-0.102c0.032-0.02,0.069-0.03,0.11-0.03
		c0.064,0,0.16,0.04,0.286,0.118c0.126,0.08,0.281,0.166,0.466,0.26s0.403,0.18,0.655,0.26c0.252,0.078,0.542,0.118,0.87,0.118
		c0.246,0,0.469-0.026,0.668-0.079s0.372-0.13,0.519-0.232s0.259-0.233,0.338-0.392s0.119-0.346,0.119-0.563
		c0-0.223-0.057-0.41-0.171-0.563s-0.265-0.287-0.453-0.404s-0.398-0.222-0.633-0.312c-0.234-0.092-0.476-0.187-0.725-0.286
		s-0.492-0.212-0.729-0.339c-0.237-0.125-0.45-0.279-0.637-0.461s-0.338-0.398-0.453-0.65s-0.171-0.554-0.171-0.905
		c0-0.311,0.06-0.608,0.18-0.892c0.12-0.285,0.3-0.533,0.541-0.748c0.24-0.213,0.541-0.385,0.901-0.514s0.781-0.193,1.261-0.193
		c0.211,0,0.422,0.018,0.633,0.053s0.401,0.079,0.571,0.132s0.315,0.11,0.435,0.171c0.12,0.063,0.211,0.116,0.272,0.163
		s0.103,0.088,0.123,0.123s0.035,0.075,0.044,0.118c0.009,0.045,0.018,0.099,0.026,0.163s0.013,0.144,0.013,0.237
		c0,0.1-0.004,0.186-0.013,0.26c-0.009,0.072-0.023,0.133-0.044,0.18s-0.045,0.08-0.075,0.102c-0.029,0.02-0.062,0.03-0.097,0.03
		c-0.053,0-0.129-0.032-0.229-0.097s-0.229-0.133-0.387-0.207c-0.158-0.072-0.344-0.142-0.558-0.206s-0.458-0.097-0.734-0.097
		c-0.246,0-0.463,0.027-0.65,0.084c-0.188,0.055-0.341,0.135-0.461,0.236c-0.12,0.104-0.211,0.225-0.272,0.365
		s-0.092,0.293-0.092,0.457c0,0.229,0.059,0.42,0.176,0.576c0.117,0.154,0.27,0.291,0.457,0.408s0.401,0.223,0.642,0.316
		s0.485,0.19,0.734,0.29s0.495,0.211,0.738,0.334s0.458,0.272,0.646,0.448s0.338,0.387,0.453,0.633S135.712,97.49,135.712,97.83z"/>
	<path fill="#FFFFFF" d="M143.473,98.779c0,0.1-0.003,0.187-0.009,0.26s-0.016,0.135-0.031,0.184
		c-0.015,0.051-0.032,0.095-0.053,0.133s-0.067,0.094-0.141,0.166c-0.073,0.074-0.198,0.165-0.374,0.273s-0.374,0.205-0.593,0.289
		c-0.22,0.086-0.458,0.154-0.716,0.207s-0.524,0.079-0.8,0.079c-0.568,0-1.072-0.094-1.512-0.281s-0.807-0.462-1.103-0.821
		c-0.296-0.361-0.521-0.803-0.677-1.328c-0.155-0.523-0.233-1.129-0.233-1.814c0-0.779,0.095-1.449,0.286-2.008
		c0.19-0.561,0.451-1.019,0.782-1.376s0.721-0.622,1.169-0.796c0.448-0.172,0.933-0.259,1.455-0.259c0.252,0,0.497,0.023,0.734,0.07
		s0.456,0.108,0.655,0.185s0.376,0.164,0.532,0.264s0.268,0.185,0.338,0.255s0.119,0.126,0.145,0.167s0.048,0.09,0.066,0.145
		c0.018,0.057,0.029,0.119,0.035,0.189s0.009,0.158,0.009,0.264c0,0.229-0.026,0.389-0.079,0.479
		c-0.053,0.092-0.117,0.137-0.193,0.137c-0.088,0-0.189-0.049-0.303-0.145c-0.114-0.098-0.259-0.204-0.435-0.321
		s-0.388-0.224-0.637-0.321c-0.249-0.096-0.543-0.145-0.883-0.145c-0.697,0-1.232,0.268-1.604,0.805
		c-0.372,0.535-0.558,1.313-0.558,2.333c0,0.51,0.048,0.957,0.145,1.341s0.239,0.704,0.426,0.962s0.417,0.45,0.69,0.575
		c0.272,0.127,0.584,0.189,0.936,0.189c0.334,0,0.627-0.053,0.879-0.158s0.47-0.221,0.655-0.348c0.185-0.125,0.34-0.239,0.466-0.342
		s0.224-0.154,0.294-0.154c0.041,0,0.076,0.012,0.105,0.035s0.054,0.063,0.075,0.119s0.035,0.126,0.044,0.211
		S143.473,98.662,143.473,98.779z"/>
	<path fill="#FFFFFF" d="M152.209,99.983c0,0.047-0.012,0.087-0.035,0.118c-0.023,0.033-0.062,0.061-0.114,0.084
		s-0.126,0.041-0.22,0.053s-0.211,0.018-0.352,0.018c-0.146,0-0.267-0.006-0.36-0.018s-0.167-0.029-0.22-0.053
		s-0.091-0.051-0.114-0.084c-0.023-0.031-0.035-0.071-0.035-0.118v-4.632c0-0.451-0.035-0.814-0.105-1.09s-0.173-0.513-0.308-0.712
		s-0.309-0.352-0.523-0.457s-0.461-0.158-0.743-0.158c-0.363,0-0.727,0.129-1.09,0.387s-0.744,0.636-1.143,1.134v5.528
		c0,0.047-0.012,0.087-0.035,0.118c-0.023,0.033-0.062,0.061-0.114,0.084s-0.126,0.041-0.22,0.053s-0.214,0.018-0.36,0.018
		c-0.141,0-0.258-0.006-0.352-0.018s-0.168-0.029-0.224-0.053s-0.094-0.051-0.114-0.084c-0.021-0.031-0.031-0.071-0.031-0.118
		V88.241c0-0.047,0.01-0.088,0.031-0.123s0.059-0.064,0.114-0.088s0.13-0.041,0.224-0.053s0.211-0.018,0.352-0.018
		c0.146,0,0.267,0.006,0.36,0.018s0.167,0.029,0.22,0.053s0.091,0.053,0.114,0.088s0.035,0.076,0.035,0.123v4.737
		c0.416-0.439,0.835-0.766,1.257-0.98c0.422-0.213,0.847-0.32,1.274-0.32c0.527,0,0.971,0.09,1.332,0.268
		c0.36,0.18,0.652,0.418,0.875,0.717s0.382,0.648,0.479,1.051c0.097,0.4,0.145,0.886,0.145,1.454V99.983z"/>
	<path fill="#FFFFFF" d="M161.604,95.686c0,0.229-0.058,0.391-0.172,0.488c-0.115,0.096-0.246,0.145-0.393,0.145h-5.209
		c0,0.439,0.044,0.835,0.132,1.187s0.235,0.653,0.442,0.905c0.206,0.252,0.474,0.445,0.803,0.58c0.33,0.135,0.733,0.202,1.21,0.202
		c0.376,0,0.712-0.03,1.006-0.093c0.294-0.061,0.549-0.13,0.764-0.206s0.392-0.146,0.53-0.206c0.139-0.063,0.243-0.093,0.314-0.093
		c0.041,0,0.078,0.011,0.11,0.03c0.032,0.021,0.057,0.052,0.075,0.093s0.031,0.099,0.04,0.171c0.009,0.074,0.013,0.163,0.013,0.269
		c0,0.076-0.003,0.143-0.009,0.198s-0.013,0.105-0.022,0.148c-0.009,0.045-0.023,0.084-0.044,0.119s-0.047,0.069-0.079,0.102
		s-0.127,0.085-0.286,0.158s-0.363,0.145-0.615,0.215s-0.543,0.133-0.875,0.189c-0.331,0.055-0.684,0.083-1.059,0.083
		c-0.65,0-1.22-0.091-1.709-0.272s-0.901-0.451-1.235-0.809s-0.586-0.806-0.756-1.345s-0.255-1.166-0.255-1.881
		c0-0.68,0.088-1.29,0.264-1.833c0.176-0.541,0.429-1.002,0.76-1.379c0.331-0.379,0.731-0.668,1.2-0.871
		c0.469-0.201,0.993-0.303,1.573-0.303c0.621,0,1.15,0.1,1.586,0.299s0.795,0.467,1.077,0.805c0.281,0.336,0.488,0.732,0.62,1.186
		c0.132,0.455,0.198,0.939,0.198,1.455V95.686z M160.146,95.255c0.018-0.762-0.152-1.359-0.508-1.793
		c-0.357-0.434-0.886-0.65-1.587-0.65c-0.36,0-0.675,0.067-0.946,0.202s-0.498,0.313-0.681,0.536
		c-0.183,0.223-0.324,0.481-0.424,0.778c-0.1,0.295-0.156,0.604-0.168,0.927H160.146z"/>
	<path fill="#FFFFFF" d="M172.846,97.83c0,0.404-0.075,0.765-0.224,1.081s-0.362,0.583-0.637,0.8s-0.604,0.381-0.984,0.492
		s-0.8,0.167-1.257,0.167c-0.281,0-0.549-0.022-0.804-0.065c-0.255-0.045-0.483-0.101-0.686-0.168
		c-0.202-0.066-0.374-0.137-0.514-0.211c-0.141-0.072-0.243-0.139-0.308-0.197s-0.111-0.141-0.141-0.246s-0.044-0.249-0.044-0.431
		c0-0.111,0.006-0.205,0.018-0.281s0.026-0.138,0.044-0.185s0.042-0.08,0.075-0.102c0.032-0.02,0.069-0.03,0.11-0.03
		c0.064,0,0.16,0.04,0.286,0.118c0.126,0.08,0.281,0.166,0.466,0.26s0.403,0.18,0.655,0.26c0.252,0.078,0.542,0.118,0.87,0.118
		c0.246,0,0.469-0.026,0.668-0.079s0.372-0.13,0.519-0.232s0.259-0.233,0.338-0.392s0.119-0.346,0.119-0.563
		c0-0.223-0.057-0.41-0.171-0.563s-0.265-0.287-0.453-0.404s-0.398-0.222-0.633-0.312c-0.234-0.092-0.476-0.187-0.725-0.286
		s-0.492-0.212-0.729-0.339c-0.237-0.125-0.45-0.279-0.637-0.461s-0.338-0.398-0.453-0.65s-0.171-0.554-0.171-0.905
		c0-0.311,0.06-0.608,0.18-0.892c0.12-0.285,0.3-0.533,0.541-0.748c0.24-0.213,0.541-0.385,0.901-0.514s0.781-0.193,1.261-0.193
		c0.211,0,0.422,0.018,0.633,0.053s0.401,0.079,0.571,0.132s0.315,0.11,0.435,0.171c0.12,0.063,0.211,0.116,0.272,0.163
		s0.103,0.088,0.123,0.123s0.035,0.075,0.044,0.118c0.009,0.045,0.018,0.099,0.026,0.163s0.013,0.144,0.013,0.237
		c0,0.1-0.004,0.186-0.013,0.26c-0.009,0.072-0.023,0.133-0.044,0.18s-0.045,0.08-0.075,0.102c-0.029,0.02-0.062,0.03-0.097,0.03
		c-0.053,0-0.129-0.032-0.229-0.097s-0.229-0.133-0.387-0.207c-0.158-0.072-0.344-0.142-0.558-0.206s-0.458-0.097-0.734-0.097
		c-0.246,0-0.463,0.027-0.65,0.084c-0.188,0.055-0.341,0.135-0.461,0.236c-0.12,0.104-0.211,0.225-0.272,0.365
		s-0.092,0.293-0.092,0.457c0,0.229,0.059,0.42,0.176,0.576c0.117,0.154,0.27,0.291,0.457,0.408s0.401,0.223,0.642,0.316
		s0.485,0.19,0.734,0.29s0.495,0.211,0.738,0.334s0.458,0.272,0.646,0.448s0.338,0.387,0.453,0.633S172.846,97.49,172.846,97.83z"/>
	<path fill="#FFFFFF" d="M178.831,99.403c0,0.17-0.012,0.305-0.035,0.404s-0.059,0.173-0.105,0.22s-0.117,0.091-0.211,0.132
		s-0.201,0.075-0.321,0.101c-0.12,0.027-0.248,0.049-0.382,0.066s-0.27,0.026-0.404,0.026c-0.41,0-0.762-0.055-1.055-0.163
		c-0.293-0.107-0.533-0.271-0.721-0.492c-0.188-0.219-0.324-0.497-0.409-0.834s-0.127-0.734-0.127-1.191v-4.623h-1.107
		c-0.088,0-0.158-0.047-0.211-0.141s-0.079-0.246-0.079-0.457c0-0.111,0.007-0.205,0.022-0.281s0.034-0.139,0.057-0.189
		c0.023-0.049,0.054-0.084,0.092-0.105c0.038-0.02,0.081-0.03,0.127-0.03h1.099v-1.881c0-0.041,0.01-0.079,0.031-0.114
		s0.059-0.066,0.114-0.092c0.056-0.027,0.13-0.046,0.224-0.058s0.211-0.018,0.352-0.018c0.146,0,0.267,0.006,0.36,0.018
		s0.167,0.03,0.22,0.058c0.053,0.025,0.091,0.057,0.114,0.092s0.035,0.073,0.035,0.114v1.881h2.03c0.047,0,0.088,0.011,0.123,0.03
		c0.035,0.021,0.066,0.057,0.092,0.105c0.026,0.051,0.045,0.113,0.057,0.189s0.018,0.17,0.018,0.281
		c0,0.211-0.026,0.363-0.079,0.457s-0.123,0.141-0.211,0.141h-2.03v4.412c0,0.545,0.081,0.957,0.242,1.234
		c0.161,0.279,0.45,0.418,0.866,0.418c0.135,0,0.255-0.014,0.36-0.039c0.105-0.027,0.199-0.055,0.281-0.084s0.152-0.057,0.211-0.084
		c0.059-0.025,0.111-0.039,0.158-0.039c0.029,0,0.057,0.008,0.083,0.021c0.026,0.016,0.047,0.043,0.062,0.084
		s0.028,0.097,0.04,0.167S178.831,99.298,178.831,99.403z"/>
	<path fill="#FFFFFF" d="M186.486,99.992c0,0.07-0.023,0.123-0.07,0.158s-0.111,0.062-0.193,0.079s-0.202,0.026-0.36,0.026
		c-0.152,0-0.274-0.009-0.365-0.026s-0.157-0.044-0.198-0.079s-0.062-0.088-0.062-0.158v-0.791
		c-0.346,0.369-0.731,0.656-1.156,0.861s-0.875,0.308-1.349,0.308c-0.416,0-0.792-0.055-1.129-0.163
		c-0.337-0.107-0.624-0.265-0.861-0.47s-0.422-0.457-0.554-0.756s-0.198-0.639-0.198-1.02c0-0.445,0.091-0.832,0.272-1.16
		s0.442-0.601,0.782-0.817s0.756-0.379,1.248-0.488c0.492-0.107,1.046-0.162,1.661-0.162h1.09v-0.615
		c0-0.305-0.032-0.574-0.097-0.809s-0.168-0.43-0.312-0.584c-0.144-0.156-0.33-0.273-0.558-0.352
		c-0.229-0.08-0.51-0.119-0.844-0.119c-0.357,0-0.678,0.043-0.962,0.127c-0.284,0.086-0.533,0.18-0.747,0.281
		c-0.214,0.104-0.393,0.197-0.536,0.281c-0.144,0.086-0.25,0.128-0.321,0.128c-0.047,0-0.088-0.012-0.123-0.035
		s-0.066-0.059-0.092-0.105s-0.045-0.106-0.057-0.181c-0.012-0.072-0.018-0.153-0.018-0.241c0-0.146,0.01-0.263,0.031-0.347
		c0.021-0.086,0.07-0.166,0.149-0.242s0.215-0.166,0.409-0.268c0.193-0.104,0.416-0.197,0.668-0.281
		c0.252-0.086,0.527-0.156,0.826-0.211c0.299-0.057,0.601-0.084,0.905-0.084c0.568,0,1.052,0.064,1.45,0.193
		s0.721,0.318,0.967,0.566c0.246,0.25,0.425,0.559,0.536,0.928s0.167,0.8,0.167,1.292V99.992z M185.045,96.38h-1.239
		c-0.398,0-0.744,0.034-1.037,0.101c-0.293,0.068-0.536,0.168-0.729,0.299c-0.193,0.133-0.335,0.291-0.426,0.475
		c-0.091,0.186-0.136,0.397-0.136,0.638c0,0.41,0.13,0.737,0.391,0.979c0.261,0.244,0.625,0.365,1.094,0.365
		c0.381,0,0.734-0.097,1.059-0.29s0.667-0.489,1.024-0.888V96.38z"/>
	<path fill="#FFFFFF" d="M195.926,99.983c0,0.047-0.01,0.088-0.031,0.123s-0.056,0.063-0.105,0.083
		c-0.05,0.021-0.116,0.037-0.198,0.049s-0.182,0.018-0.299,0.018c-0.123,0-0.226-0.006-0.308-0.018s-0.149-0.028-0.202-0.049
		c-0.053-0.02-0.091-0.048-0.114-0.083s-0.035-0.076-0.035-0.123v-1.046c-0.416,0.451-0.848,0.803-1.296,1.055
		s-0.939,0.378-1.472,0.378c-0.58,0-1.075-0.113-1.485-0.339c-0.41-0.225-0.743-0.529-0.998-0.914
		c-0.255-0.383-0.441-0.834-0.558-1.354c-0.117-0.518-0.176-1.064-0.176-1.639c0-0.68,0.073-1.293,0.22-1.842
		c0.146-0.547,0.363-1.015,0.65-1.401s0.643-0.685,1.068-0.892c0.425-0.209,0.916-0.313,1.472-0.313c0.463,0,0.886,0.102,1.27,0.303
		c0.384,0.203,0.763,0.5,1.138,0.893v-4.597c0-0.041,0.01-0.081,0.031-0.118c0.021-0.039,0.06-0.068,0.119-0.088
		c0.059-0.021,0.133-0.039,0.224-0.053c0.091-0.016,0.207-0.022,0.347-0.022c0.146,0,0.267,0.007,0.36,0.022
		c0.094,0.014,0.167,0.031,0.22,0.053c0.053,0.02,0.092,0.049,0.119,0.088c0.026,0.037,0.04,0.077,0.04,0.118V99.983z
		 M194.467,94.42c-0.393-0.486-0.772-0.857-1.138-1.111c-0.366-0.256-0.749-0.383-1.147-0.383c-0.369,0-0.683,0.088-0.94,0.264
		s-0.467,0.407-0.628,0.694s-0.278,0.612-0.352,0.976s-0.11,0.732-0.11,1.107c0,0.398,0.031,0.788,0.092,1.169
		s0.168,0.72,0.321,1.015c0.152,0.297,0.354,0.534,0.606,0.713s0.568,0.268,0.949,0.268c0.193,0,0.379-0.026,0.558-0.079
		s0.362-0.141,0.549-0.264s0.384-0.282,0.589-0.479c0.205-0.195,0.422-0.438,0.65-0.725V94.42z"/>
	<path fill="#FFFFFF" d="M204.522,91.845v-0.817c0-0.551,0.051-1.023,0.153-1.42c0.103-0.395,0.259-0.719,0.47-0.971
		s0.477-0.438,0.796-0.559c0.319-0.119,0.692-0.18,1.12-0.18c0.199,0,0.397,0.02,0.594,0.057c0.196,0.039,0.348,0.08,0.453,0.123
		c0.105,0.045,0.176,0.084,0.211,0.119s0.063,0.08,0.088,0.137c0.022,0.055,0.039,0.123,0.048,0.201
		c0.009,0.08,0.013,0.175,0.013,0.286s-0.004,0.2-0.013,0.269c-0.009,0.066-0.022,0.121-0.04,0.162s-0.038,0.068-0.061,0.084
		c-0.024,0.014-0.051,0.021-0.08,0.021c-0.047,0-0.133-0.026-0.259-0.079s-0.259-0.095-0.399-0.128
		c-0.141-0.031-0.291-0.048-0.449-0.048c-0.217,0-0.401,0.035-0.553,0.105c-0.153,0.07-0.276,0.181-0.369,0.329
		c-0.095,0.15-0.163,0.344-0.207,0.58c-0.044,0.238-0.066,0.526-0.066,0.866v0.861h1.768c0.046,0,0.089,0.011,0.127,0.03
		c0.038,0.021,0.068,0.057,0.092,0.105c0.023,0.051,0.043,0.113,0.058,0.189s0.022,0.17,0.022,0.281c0,0.211-0.027,0.363-0.08,0.457
		s-0.123,0.141-0.211,0.141h-1.775v6.935c0,0.047-0.012,0.087-0.035,0.118c-0.023,0.033-0.061,0.061-0.113,0.084
		s-0.127,0.041-0.221,0.053s-0.214,0.018-0.359,0.018c-0.141,0-0.259-0.006-0.352-0.018c-0.095-0.012-0.169-0.029-0.225-0.053
		s-0.094-0.051-0.114-0.084c-0.021-0.031-0.03-0.071-0.03-0.118v-6.935h-4.123v4.412c0,0.545,0.081,0.957,0.242,1.234
		c0.161,0.279,0.449,0.418,0.865,0.418c0.135,0,0.256-0.014,0.361-0.039c0.105-0.027,0.198-0.055,0.281-0.084
		c0.081-0.029,0.151-0.057,0.211-0.084c0.058-0.025,0.11-0.039,0.158-0.039c0.028,0,0.057,0.008,0.083,0.021
		c0.026,0.016,0.047,0.043,0.062,0.084s0.027,0.097,0.039,0.167s0.018,0.158,0.018,0.264c0,0.17-0.012,0.304-0.035,0.399
		c-0.023,0.098-0.059,0.171-0.105,0.221s-0.117,0.095-0.211,0.136s-0.2,0.075-0.32,0.101c-0.12,0.027-0.248,0.049-0.383,0.066
		s-0.27,0.026-0.404,0.026c-0.41,0-0.762-0.055-1.055-0.163c-0.293-0.107-0.533-0.271-0.721-0.492
		c-0.188-0.219-0.323-0.497-0.408-0.834s-0.127-0.734-0.127-1.191v-4.623h-1.107c-0.088,0-0.158-0.047-0.211-0.141
		s-0.079-0.246-0.079-0.457c0-0.111,0.007-0.205,0.022-0.281s0.034-0.139,0.057-0.189c0.023-0.049,0.054-0.084,0.092-0.105
		c0.038-0.02,0.081-0.03,0.127-0.03h1.099v-1.881c0-0.041,0.01-0.079,0.031-0.114s0.059-0.066,0.114-0.092
		c0.056-0.027,0.13-0.046,0.225-0.058c0.093-0.012,0.211-0.018,0.352-0.018c0.146,0,0.266,0.006,0.359,0.018s0.168,0.03,0.221,0.058
		c0.053,0.025,0.09,0.057,0.113,0.092s0.035,0.073,0.035,0.114v1.881H204.522z"/>
	<path fill="#FFFFFF" d="M216.606,95.94c0,0.645-0.085,1.238-0.255,1.78s-0.424,1.009-0.761,1.401s-0.759,0.698-1.266,0.919
		c-0.507,0.219-1.094,0.329-1.762,0.329c-0.65,0-1.217-0.097-1.701-0.29c-0.482-0.193-0.886-0.475-1.208-0.844
		s-0.563-0.817-0.721-1.345s-0.237-1.125-0.237-1.793c0-0.645,0.084-1.237,0.25-1.78c0.168-0.541,0.419-1.009,0.756-1.401
		s0.758-0.697,1.262-0.914s1.093-0.325,1.767-0.325c0.65,0,1.218,0.097,1.7,0.29c0.484,0.193,0.887,0.475,1.209,0.844
		s0.563,0.817,0.725,1.345S216.606,95.278,216.606,95.94z M215.103,96.037c0-0.428-0.04-0.832-0.12-1.213
		c-0.079-0.381-0.211-0.715-0.395-1.002s-0.432-0.514-0.745-0.682c-0.313-0.166-0.703-0.25-1.17-0.25
		c-0.432,0-0.803,0.076-1.113,0.229s-0.566,0.367-0.768,0.646c-0.201,0.277-0.35,0.607-0.447,0.988s-0.146,0.797-0.146,1.248
		c0,0.434,0.04,0.841,0.12,1.222c0.079,0.381,0.213,0.714,0.398,0.997c0.187,0.285,0.437,0.51,0.75,0.678
		c0.313,0.166,0.703,0.25,1.17,0.25c0.426,0,0.796-0.076,1.108-0.229c0.313-0.152,0.571-0.366,0.772-0.642
		c0.2-0.275,0.349-0.604,0.443-0.984C215.055,96.913,215.103,96.494,215.103,96.037z"/>
	<path fill="#FFFFFF" d="M223.365,92.592c0,0.129-0.003,0.237-0.009,0.325s-0.018,0.157-0.035,0.206
		c-0.018,0.051-0.039,0.088-0.066,0.115c-0.025,0.025-0.063,0.039-0.109,0.039s-0.104-0.014-0.172-0.039
		c-0.067-0.027-0.144-0.053-0.229-0.08c-0.085-0.025-0.18-0.051-0.285-0.074s-0.22-0.035-0.343-0.035
		c-0.146,0-0.29,0.029-0.431,0.088s-0.289,0.155-0.443,0.29c-0.156,0.135-0.318,0.313-0.488,0.536s-0.357,0.495-0.563,0.817v5.203
		c0,0.047-0.012,0.087-0.035,0.118c-0.023,0.033-0.062,0.061-0.114,0.084s-0.126,0.041-0.22,0.053s-0.214,0.018-0.36,0.018
		c-0.141,0-0.258-0.006-0.352-0.018s-0.169-0.029-0.224-0.053c-0.057-0.023-0.095-0.051-0.115-0.084
		c-0.021-0.031-0.03-0.071-0.03-0.118v-7.91c0-0.047,0.009-0.087,0.026-0.118c0.018-0.033,0.053-0.063,0.105-0.088
		c0.053-0.027,0.12-0.045,0.202-0.053c0.082-0.01,0.19-0.014,0.325-0.014c0.129,0,0.235,0.004,0.32,0.014
		c0.085,0.008,0.151,0.025,0.198,0.053c0.047,0.025,0.08,0.055,0.101,0.088c0.021,0.031,0.031,0.071,0.031,0.118v1.151
		c0.217-0.316,0.42-0.574,0.611-0.773c0.189-0.199,0.37-0.355,0.54-0.471c0.17-0.113,0.339-0.193,0.505-0.236
		c0.168-0.045,0.336-0.066,0.506-0.066c0.076,0,0.162,0.004,0.26,0.014c0.096,0.008,0.197,0.024,0.303,0.048s0.2,0.05,0.285,0.079
		s0.146,0.059,0.181,0.088s0.059,0.057,0.07,0.084c0.012,0.025,0.022,0.06,0.03,0.101c0.01,0.041,0.015,0.101,0.018,0.181
		C223.363,92.35,223.365,92.457,223.365,92.592z"/>
	<path fill="#FFFFFF" d="M229.676,97.83c0,0.404-0.074,0.765-0.225,1.081c-0.148,0.316-0.361,0.583-0.637,0.8
		s-0.604,0.381-0.984,0.492s-0.8,0.167-1.257,0.167c-0.281,0-0.55-0.022-0.804-0.065c-0.256-0.045-0.484-0.101-0.686-0.168
		c-0.203-0.066-0.374-0.137-0.515-0.211c-0.141-0.072-0.243-0.139-0.308-0.197s-0.111-0.141-0.141-0.246s-0.044-0.249-0.044-0.431
		c0-0.111,0.006-0.205,0.018-0.281s0.026-0.138,0.044-0.185s0.042-0.08,0.074-0.102c0.032-0.02,0.069-0.03,0.11-0.03
		c0.064,0,0.159,0.04,0.286,0.118c0.125,0.08,0.281,0.166,0.465,0.26c0.186,0.094,0.403,0.18,0.655,0.26
		c0.252,0.078,0.542,0.118,0.87,0.118c0.246,0,0.469-0.026,0.668-0.079s0.372-0.13,0.519-0.232s0.259-0.233,0.339-0.392
		c0.078-0.158,0.118-0.346,0.118-0.563c0-0.223-0.058-0.41-0.171-0.563c-0.115-0.152-0.266-0.287-0.453-0.404
		s-0.398-0.222-0.633-0.312c-0.234-0.092-0.477-0.187-0.725-0.286c-0.25-0.1-0.492-0.212-0.73-0.339
		c-0.236-0.125-0.449-0.279-0.637-0.461s-0.338-0.398-0.453-0.65c-0.113-0.252-0.171-0.554-0.171-0.905
		c0-0.311,0.06-0.608,0.181-0.892c0.119-0.285,0.3-0.533,0.54-0.748c0.24-0.213,0.54-0.385,0.901-0.514
		c0.359-0.129,0.78-0.193,1.261-0.193c0.211,0,0.422,0.018,0.633,0.053s0.401,0.079,0.571,0.132s0.314,0.11,0.436,0.171
		c0.119,0.063,0.211,0.116,0.271,0.163c0.063,0.047,0.103,0.088,0.123,0.123s0.035,0.075,0.045,0.118
		c0.008,0.045,0.018,0.099,0.025,0.163c0.01,0.064,0.014,0.144,0.014,0.237c0,0.1-0.004,0.186-0.014,0.26
		c-0.008,0.072-0.023,0.133-0.043,0.18c-0.021,0.047-0.046,0.08-0.075,0.102c-0.029,0.02-0.062,0.03-0.097,0.03
		c-0.053,0-0.129-0.032-0.229-0.097s-0.229-0.133-0.387-0.207c-0.158-0.072-0.345-0.142-0.559-0.206s-0.458-0.097-0.733-0.097
		c-0.246,0-0.463,0.027-0.65,0.084c-0.188,0.055-0.342,0.135-0.462,0.236c-0.12,0.104-0.211,0.225-0.271,0.365
		c-0.063,0.141-0.093,0.293-0.093,0.457c0,0.229,0.059,0.42,0.176,0.576c0.117,0.154,0.27,0.291,0.457,0.408
		s0.401,0.223,0.642,0.316s0.484,0.19,0.734,0.29c0.248,0.1,0.494,0.211,0.738,0.334c0.242,0.123,0.458,0.272,0.646,0.448
		s0.339,0.387,0.452,0.633C229.62,97.197,229.676,97.49,229.676,97.83z"/>
	<path fill="#FFFFFF" d="M237.436,98.779c0,0.1-0.003,0.187-0.009,0.26s-0.017,0.135-0.03,0.184
		c-0.016,0.051-0.033,0.095-0.053,0.133c-0.021,0.038-0.068,0.094-0.141,0.166c-0.074,0.074-0.198,0.165-0.374,0.273
		s-0.374,0.205-0.593,0.289c-0.221,0.086-0.459,0.154-0.717,0.207s-0.524,0.079-0.8,0.079c-0.568,0-1.072-0.094-1.512-0.281
		s-0.808-0.462-1.103-0.821c-0.297-0.361-0.522-0.803-0.678-1.328c-0.155-0.523-0.232-1.129-0.232-1.814
		c0-0.779,0.095-1.449,0.285-2.008c0.19-0.561,0.451-1.019,0.783-1.376c0.33-0.357,0.721-0.622,1.168-0.796
		c0.449-0.172,0.934-0.259,1.455-0.259c0.252,0,0.496,0.023,0.734,0.07c0.236,0.047,0.455,0.108,0.654,0.185
		s0.376,0.164,0.531,0.264s0.269,0.185,0.339,0.255s0.118,0.126,0.146,0.167c0.025,0.041,0.048,0.09,0.065,0.145
		c0.018,0.057,0.029,0.119,0.035,0.189s0.009,0.158,0.009,0.264c0,0.229-0.026,0.389-0.079,0.479
		c-0.053,0.092-0.117,0.137-0.193,0.137c-0.088,0-0.188-0.049-0.304-0.145c-0.113-0.098-0.259-0.204-0.435-0.321
		s-0.389-0.224-0.638-0.321c-0.249-0.096-0.543-0.145-0.883-0.145c-0.697,0-1.232,0.268-1.604,0.805
		c-0.373,0.535-0.559,1.313-0.559,2.333c0,0.51,0.049,0.957,0.145,1.341c0.098,0.384,0.239,0.704,0.427,0.962s0.417,0.45,0.69,0.575
		c0.271,0.127,0.584,0.189,0.936,0.189c0.334,0,0.627-0.053,0.879-0.158s0.471-0.221,0.654-0.348
		c0.186-0.125,0.34-0.239,0.467-0.342c0.125-0.103,0.224-0.154,0.294-0.154c0.041,0,0.076,0.012,0.105,0.035
		s0.054,0.063,0.075,0.119c0.02,0.056,0.035,0.126,0.043,0.211C237.432,98.562,237.436,98.662,237.436,98.779z"/>
	<path fill="#FFFFFF" d="M246.172,99.983c0,0.047-0.012,0.087-0.035,0.118c-0.023,0.033-0.062,0.061-0.114,0.084
		s-0.126,0.041-0.22,0.053s-0.211,0.018-0.352,0.018c-0.146,0-0.267-0.006-0.36-0.018s-0.167-0.029-0.22-0.053
		s-0.091-0.051-0.114-0.084c-0.023-0.031-0.035-0.071-0.035-0.118v-4.632c0-0.451-0.035-0.814-0.105-1.09s-0.173-0.513-0.308-0.712
		s-0.31-0.352-0.523-0.457s-0.461-0.158-0.742-0.158c-0.363,0-0.727,0.129-1.09,0.387s-0.744,0.636-1.143,1.134v5.528
		c0,0.047-0.012,0.087-0.035,0.118c-0.023,0.033-0.062,0.061-0.114,0.084s-0.126,0.041-0.22,0.053s-0.214,0.018-0.36,0.018
		c-0.141,0-0.258-0.006-0.352-0.018s-0.169-0.029-0.224-0.053c-0.057-0.023-0.095-0.051-0.115-0.084
		c-0.021-0.031-0.03-0.071-0.03-0.118V88.241c0-0.047,0.01-0.088,0.03-0.123s0.059-0.064,0.115-0.088
		c0.055-0.023,0.13-0.041,0.224-0.053s0.211-0.018,0.352-0.018c0.146,0,0.267,0.006,0.36,0.018s0.167,0.029,0.22,0.053
		s0.091,0.053,0.114,0.088s0.035,0.076,0.035,0.123v4.737c0.416-0.439,0.835-0.766,1.257-0.98c0.422-0.213,0.847-0.32,1.274-0.32
		c0.527,0,0.971,0.09,1.332,0.268c0.359,0.18,0.651,0.418,0.874,0.717s0.382,0.648,0.479,1.051c0.096,0.4,0.145,0.886,0.145,1.454
		V99.983z"/>
	<path fill="#FFFFFF" d="M255.594,99.983c0,0.047-0.01,0.087-0.031,0.118c-0.02,0.033-0.057,0.061-0.109,0.084
		s-0.121,0.041-0.207,0.053c-0.084,0.012-0.188,0.018-0.311,0.018c-0.135,0-0.246-0.006-0.33-0.018
		c-0.086-0.012-0.152-0.029-0.203-0.053c-0.049-0.023-0.082-0.051-0.1-0.084c-0.018-0.031-0.027-0.071-0.027-0.118v-1.046
		c-0.451,0.498-0.896,0.861-1.336,1.09s-0.885,0.343-1.336,0.343c-0.527,0-0.97-0.088-1.332-0.264
		c-0.359-0.176-0.651-0.414-0.874-0.716s-0.382-0.653-0.479-1.055c-0.096-0.401-0.145-0.89-0.145-1.464v-4.799
		c0-0.047,0.01-0.087,0.031-0.118c0.02-0.033,0.06-0.063,0.118-0.088c0.059-0.027,0.135-0.045,0.229-0.053
		c0.094-0.01,0.211-0.014,0.352-0.014s0.258,0.004,0.352,0.014c0.094,0.008,0.168,0.025,0.224,0.053
		c0.056,0.025,0.096,0.055,0.119,0.088c0.023,0.031,0.035,0.071,0.035,0.118v4.605c0,0.463,0.033,0.834,0.102,1.112
		c0.066,0.278,0.169,0.516,0.307,0.711c0.138,0.197,0.313,0.35,0.523,0.457c0.211,0.109,0.457,0.163,0.738,0.163
		c0.363,0,0.725-0.129,1.086-0.387c0.359-0.258,0.742-0.636,1.146-1.134v-5.528c0-0.047,0.01-0.087,0.031-0.118
		c0.02-0.033,0.061-0.063,0.119-0.088c0.059-0.027,0.133-0.045,0.223-0.053c0.092-0.01,0.211-0.014,0.357-0.014
		c0.141,0,0.258,0.004,0.352,0.014c0.094,0.008,0.166,0.025,0.219,0.053c0.053,0.025,0.092,0.055,0.119,0.088
		c0.025,0.031,0.039,0.071,0.039,0.118V99.983z"/>
	<path fill="#FFFFFF" d="M265.086,99.983c0,0.047-0.012,0.087-0.035,0.118c-0.023,0.033-0.061,0.061-0.113,0.084
		s-0.127,0.041-0.221,0.053s-0.211,0.018-0.352,0.018c-0.146,0-0.266-0.006-0.359-0.018s-0.168-0.029-0.221-0.053
		s-0.09-0.051-0.113-0.084c-0.023-0.031-0.035-0.071-0.035-0.118v-4.632c0-0.451-0.035-0.814-0.105-1.09s-0.174-0.513-0.309-0.712
		s-0.309-0.352-0.523-0.457c-0.213-0.105-0.461-0.158-0.742-0.158c-0.363,0-0.727,0.129-1.09,0.387s-0.744,0.636-1.143,1.134v5.528
		c0,0.047-0.012,0.087-0.035,0.118c-0.023,0.033-0.061,0.061-0.113,0.084s-0.127,0.041-0.221,0.053s-0.213,0.018-0.359,0.018
		c-0.141,0-0.258-0.006-0.352-0.018s-0.17-0.029-0.225-0.053c-0.057-0.023-0.094-0.051-0.115-0.084
		c-0.02-0.031-0.029-0.071-0.029-0.118v-7.91c0-0.047,0.008-0.087,0.025-0.118c0.018-0.033,0.053-0.063,0.105-0.088
		c0.053-0.027,0.121-0.045,0.203-0.053c0.082-0.01,0.189-0.014,0.324-0.014c0.129,0,0.236,0.004,0.32,0.014
		c0.086,0.008,0.152,0.025,0.199,0.053c0.047,0.025,0.08,0.055,0.1,0.088c0.021,0.031,0.031,0.071,0.031,0.118v1.046
		c0.445-0.498,0.889-0.863,1.332-1.094c0.441-0.232,0.889-0.348,1.34-0.348c0.527,0,0.971,0.09,1.332,0.268
		c0.359,0.18,0.652,0.418,0.875,0.717s0.381,0.648,0.479,1.051c0.096,0.4,0.145,0.883,0.145,1.445V99.983z"/>
	<path fill="#FFFFFF" d="M274.342,92.434c0,0.205-0.029,0.354-0.084,0.443c-0.057,0.092-0.127,0.137-0.215,0.137h-1.135
		c0.205,0.211,0.35,0.443,0.432,0.699c0.082,0.254,0.123,0.52,0.123,0.795c0,0.457-0.074,0.861-0.221,1.213
		s-0.355,0.648-0.629,0.893c-0.271,0.242-0.596,0.429-0.971,0.558s-0.791,0.193-1.248,0.193c-0.322,0-0.629-0.042-0.918-0.128
		c-0.291-0.084-0.514-0.191-0.672-0.32c-0.105,0.105-0.193,0.226-0.26,0.36c-0.068,0.135-0.102,0.29-0.102,0.466
		c0,0.205,0.096,0.375,0.285,0.51c0.191,0.135,0.445,0.208,0.762,0.22l2.064,0.088c0.393,0.012,0.754,0.065,1.082,0.163
		c0.328,0.096,0.611,0.234,0.852,0.412c0.24,0.18,0.428,0.399,0.563,0.66s0.203,0.563,0.203,0.909c0,0.363-0.076,0.709-0.229,1.037
		s-0.387,0.616-0.699,0.866c-0.314,0.248-0.713,0.444-1.199,0.588s-1.061,0.216-1.723,0.216c-0.639,0-1.184-0.055-1.631-0.163
		c-0.449-0.108-0.816-0.256-1.104-0.443s-0.494-0.412-0.623-0.672c-0.129-0.262-0.193-0.544-0.193-0.849
		c0-0.193,0.023-0.381,0.07-0.563s0.117-0.354,0.215-0.519c0.096-0.164,0.217-0.32,0.359-0.471c0.145-0.148,0.311-0.297,0.498-0.443
		c-0.287-0.146-0.5-0.331-0.639-0.554c-0.137-0.223-0.205-0.463-0.205-0.721c0-0.357,0.072-0.677,0.219-0.958
		s0.328-0.533,0.545-0.756c-0.182-0.217-0.324-0.461-0.43-0.734c-0.105-0.271-0.158-0.602-0.158-0.988
		c0-0.451,0.076-0.855,0.229-1.213s0.363-0.659,0.633-0.905s0.592-0.435,0.971-0.567c0.377-0.131,0.789-0.197,1.234-0.197
		c0.24,0,0.465,0.014,0.672,0.039c0.209,0.027,0.404,0.063,0.586,0.11h2.391c0.1,0,0.174,0.048,0.223,0.146
		C274.316,92.086,274.342,92.234,274.342,92.434z M272.803,100.783c0-0.34-0.139-0.602-0.418-0.787
		c-0.277-0.184-0.654-0.282-1.129-0.294l-2.047-0.07c-0.188,0.146-0.342,0.286-0.463,0.417c-0.119,0.133-0.215,0.258-0.285,0.379
		c-0.07,0.119-0.119,0.238-0.145,0.355c-0.027,0.117-0.039,0.237-0.039,0.36c0,0.381,0.193,0.669,0.58,0.866
		c0.387,0.195,0.926,0.294,1.617,0.294c0.439,0,0.807-0.043,1.102-0.128c0.297-0.085,0.535-0.197,0.717-0.338
		s0.313-0.302,0.391-0.483C272.764,101.173,272.803,100.982,272.803,100.783z M272.074,94.517c0-0.539-0.148-0.96-0.445-1.261
		c-0.295-0.303-0.715-0.453-1.26-0.453c-0.281,0-0.527,0.047-0.734,0.141c-0.209,0.094-0.381,0.223-0.52,0.387
		c-0.137,0.164-0.24,0.354-0.307,0.566c-0.068,0.215-0.102,0.438-0.102,0.673c0,0.521,0.148,0.932,0.443,1.23
		c0.297,0.299,0.711,0.448,1.244,0.448c0.287,0,0.537-0.045,0.748-0.137c0.211-0.09,0.385-0.217,0.521-0.377
		c0.139-0.162,0.24-0.348,0.309-0.559C272.039,94.965,272.074,94.745,272.074,94.517z"/>
</g>
</svg>
